<svg version="1.1" xmlns="http://www.w3.org/2000/svg" viewBox="0 0 637 449.9215704780073" width="637" height="449.9215704780073">
  <!-- svg-source:excalidraw -->
  
  <defs>
    <style class="style-fonts">
      @font-face {
        font-family: "Virgil";
        src: url("https://excalidraw.com/Virgil.woff2");
      }
      @font-face {
        font-family: "Cascadia";
        src: url("https://excalidraw.com/Cascadia.woff2");
      }
    </style>
  </defs>
  <rect x="0" y="0" width="637" height="449.9215704780073" fill="#ffffff"></rect><g stroke-linecap="round" transform="translate(10 10) rotate(0 94 17.5)"><path d="M7.8 -1.93 L182.44 -0.34 L188.43 3.89 L188.54 28.3 L184.05 32.79 L178.8 36.13 L5.84 32.64 L0.51 28.34 L1.89 9.56 L1.97 1.5 L6.93 -1.21" stroke="none" stroke-width="0" fill="#ced4da"></path><path d="M8.75 0 M8.75 0 C49.43 1.04, 88.41 0.63, 179.25 0 M8.75 0 C46.87 1.16, 87.43 1.31, 179.25 0 M179.25 0 C186.41 -0.2, 187.63 2.94, 188 8.75 M179.25 0 C184.43 -0.98, 186.12 2.66, 188 8.75 M188 8.75 C187.37 13.07, 186.95 21.38, 188 26.25 M188 8.75 C187.57 13.13, 187.7 15.48, 188 26.25 M188 26.25 C186.52 30.91, 186.91 33.47, 179.25 35 M188 26.25 C187.37 30.82, 186.43 32.97, 179.25 35 M179.25 35 C142.1 34.64, 110.24 31.76, 8.75 35 M179.25 35 C138.61 34.76, 96.33 34.79, 8.75 35 M8.75 35 C3.05 34.84, -0.41 33.62, 0 26.25 M8.75 35 C4.23 35.2, -0.26 33.55, 0 26.25 M0 26.25 C0.33 18.44, 1.09 12.15, 0 8.75 M0 26.25 C-0.39 22.02, -0.68 17.36, 0 8.75 M0 8.75 C-0.83 4.3, 1.9 -0.88, 8.75 0 M0 8.75 C1.52 4.62, 4.58 -0.68, 8.75 0" stroke="#364fc7" stroke-width="1" fill="none"></path></g><g transform="translate(64 15.5) rotate(0 40 12)"><text x="40" y="0" font-family="Cascadia, Segoe UI Emoji" font-size="20px" fill="#364fc7" text-anchor="middle" style="white-space: pre;" direction="ltr" dominant-baseline="text-before-edge">三次握手</text></g><g stroke-linecap="round" transform="translate(13 131.00000000000003) rotate(0 79.5 17)"><path d="M8.5 0 M8.5 0 C59.1 -0.95, 110.1 -1.07, 150.5 0 M8.5 0 C44.54 -0.93, 80.5 -1.14, 150.5 0 M150.5 0 C155.34 1.39, 157.98 1.95, 159 8.5 M150.5 0 C157.68 1.71, 160.67 2.15, 159 8.5 M159 8.5 C157.18 13.2, 158.32 19.24, 159 25.5 M159 8.5 C158.04 12.25, 158.57 15.52, 159 25.5 M159 25.5 C158.23 32.05, 157.41 34.39, 150.5 34 M159 25.5 C157.34 30.14, 155.91 35.47, 150.5 34 M150.5 34 C105.12 35.05, 60.6 36.43, 8.5 34 M150.5 34 C107.47 35.14, 63.7 34.94, 8.5 34 M8.5 34 C1.56 35.41, 0.98 29.8, 0 25.5 M8.5 34 C4.38 36.12, 0.93 29.48, 0 25.5 M0 25.5 C-0.93 21.14, 0.4 19.15, 0 8.5 M0 25.5 C0.61 20.7, -0.25 15.32, 0 8.5 M0 8.5 C1.05 3.37, 1.18 -1.92, 8.5 0 M0 8.5 C-1.99 2.7, 2.01 0.72, 8.5 0" stroke="#000000" stroke-width="1" fill="none"></path></g><g transform="translate(62.5 136.00000000000003) rotate(0 30 12)"><text x="30" y="0" font-family="Cascadia, Segoe UI Emoji" font-size="20px" fill="#000000" text-anchor="middle" style="white-space: pre;" direction="ltr" dominant-baseline="text-before-edge">发送端</text></g><g stroke-linecap="round" transform="translate(468 129.00000000000003) rotate(0 79.5 17)"><path d="M8.5 0 M8.5 0 C39.06 -1.84, 71.59 -0.13, 150.5 0 M8.5 0 C37.81 -0.24, 69.05 1.54, 150.5 0 M150.5 0 C154.18 -1.17, 157.21 3.48, 159 8.5 M150.5 0 C157.35 -1.82, 157.61 1.09, 159 8.5 M159 8.5 C160.29 14.68, 159.13 18.74, 159 25.5 M159 8.5 C158.54 14.88, 158.3 21.44, 159 25.5 M159 25.5 C157.01 30.28, 158 35.7, 150.5 34 M159 25.5 C158.41 31.81, 154.8 34.16, 150.5 34 M150.5 34 C112.91 34.6, 78.57 34.73, 8.5 34 M150.5 34 C112.39 31.61, 73.3 32.28, 8.5 34 M8.5 34 C2.66 32.39, -1.62 30.54, 0 25.5 M8.5 34 C0.6 34.05, -0.8 29.95, 0 25.5 M0 25.5 C0.25 19.82, -0.84 16.41, 0 8.5 M0 25.5 C0.25 19.51, 0.21 13.89, 0 8.5 M0 8.5 C1.95 2.88, 2.61 1.98, 8.5 0 M0 8.5 C-0.21 2.22, 0.7 -1.07, 8.5 0" stroke="#000000" stroke-width="1" fill="none"></path></g><g transform="translate(517.5 134.00000000000003) rotate(0 30 12)"><text x="30" y="0" font-family="Cascadia, Segoe UI Emoji" font-size="20px" fill="#000000" text-anchor="middle" style="white-space: pre;" direction="ltr" dominant-baseline="text-before-edge">接收端</text></g><g stroke-linecap="round"><g transform="translate(191.00000000000023 68) rotate(0 0.12491129734553397 185.6685247939081)"><path d="M-0.69 -0.58 C-0.72 61.47, -1.31 309.87, -1.01 371.92 M1.15 1.72 C1.55 63.49, 1.21 308.94, 1.17 370.28" stroke="#000000" stroke-width="1" fill="none"></path></g></g><mask></mask><g stroke-linecap="round"><g transform="translate(445.99999999999955 70) rotate(0 0.30524220898746535 184.23153937242932)"><path d="M0.97 -0.09 C0.9 61.3, 0.65 306.84, 0.39 368.07 M0.02 -1.18 C-0.25 60.44, -0.08 308.08, -0.36 369.64" stroke="#000000" stroke-width="1" fill="none"></path></g></g><mask></mask><g mask="url(#mask-O3fPMWch1lm5ajyhp6HWW)" stroke-linecap="round"><g transform="translate(204 104.00000000000003) rotate(0 94.7375991147012 24.554880905374887)"><path d="M-0.5 0.14 C31.25 8.21, 158.43 40.68, 189.97 48.96 M1.44 -0.84 C33.16 7.31, 158.47 41.3, 189.53 49.95" stroke="#000000" stroke-width="1" fill="none"></path></g><g transform="translate(204 104.00000000000003) rotate(0 94.7375991147012 24.554880905374887)"><path d="M159.86 54.01 C165.57 51.45, 174.7 50.25, 188.51 48.15 M160.39 53.02 C167.52 51.37, 176.2 50.33, 189.58 50.06" stroke="#000000" stroke-width="1" fill="none"></path></g><g transform="translate(204 104.00000000000003) rotate(0 94.7375991147012 24.554880905374887)"><path d="M165.29 34.22 C169.68 36.73, 177.42 40.61, 188.51 48.15 M165.81 33.23 C171.52 37.21, 178.66 41.8, 189.58 50.06" stroke="#000000" stroke-width="1" fill="none"></path></g></g><mask id="mask-O3fPMWch1lm5ajyhp6HWW"><rect x="0" y="0" fill="#fff" width="493" height="254.00000000000003"></rect><rect x="280.921875" y="117" fill="#000" width="35.15625" height="24" opacity="1"></rect></mask><g transform="translate(280.921875 117) rotate(0 17.815724114701197 11.554880905374887)"><text x="17.578125" y="0" font-family="Cascadia, Segoe UI Emoji" font-size="20px" fill="#000000" text-anchor="middle" style="white-space: pre;" direction="ltr" dominant-baseline="text-before-edge">SYN</text></g><g mask="url(#mask-4TjM_dBMB3klaloxQkOH8)" stroke-linecap="round"><g transform="translate(418 220.00000000000003) rotate(0 -94.97180180996656 38.36483110398052)"><path d="M0.22 -0.96 C-31.27 11.89, -157.91 63.39, -189.83 76.44 M-1.12 1.15 C-32.59 14.21, -158.31 65.34, -190.16 77.69" stroke="#000000" stroke-width="1" fill="none"></path></g><g transform="translate(418 220.00000000000003) rotate(0 -94.97180180996656 38.36483110398052)"><path d="M-169.37 59.67 C-173.88 61.75, -177.4 65.27, -191.22 76.91 M-167.95 57.38 C-174.77 63.81, -180.94 70, -190.87 76.83" stroke="#000000" stroke-width="1" fill="none"></path></g><g transform="translate(418 220.00000000000003) rotate(0 -94.97180180996656 38.36483110398052)"><path d="M-161.77 78.73 C-167.9 76.52, -173.14 75.71, -191.22 76.91 M-160.35 76.44 C-169.36 77.51, -177.69 78.28, -190.87 76.83" stroke="#000000" stroke-width="1" fill="none"></path></g></g><mask id="mask-4TjM_dBMB3klaloxQkOH8"><rect x="0" y="0" fill="#fff" width="709" height="397"></rect><rect x="281.484375" y="246.5" fill="#000" width="82.03125" height="24" opacity="1"></rect></mask><g transform="translate(281.484375 246.5) rotate(0 41.543823190033436 11.86483110398052)"><text x="41.015625" y="0" font-family="Cascadia, Segoe UI Emoji" font-size="20px" fill="#000000" text-anchor="middle" style="white-space: pre;" direction="ltr" dominant-baseline="text-before-edge">SYN/ACK</text></g><g mask="url(#mask-0B6nk4cezJZcQloUtDxdk)" stroke-linecap="round"><g transform="translate(207 345.0000000000001) rotate(0 94.91667112195864 25.274874199768533)"><path d="M0.84 -0.57 C32.27 7.64, 156.33 41.25, 187.88 49.73 M-0.18 1.74 C31.67 10.09, 158.32 42.79, 190.01 51.12" stroke="#000000" stroke-width="1" fill="none"></path></g><g transform="translate(207 345.0000000000001) rotate(0 94.91667112195864 25.274874199768533)"><path d="M159.19 52.09 C166.86 54.97, 174.96 51.99, 191.93 50.84 M160.31 54.16 C169.12 53.67, 176.63 52.51, 190.14 50.21" stroke="#000000" stroke-width="1" fill="none"></path></g><g transform="translate(207 345.0000000000001) rotate(0 94.91667112195864 25.274874199768533)"><path d="M164.36 32.23 C170.87 39.92, 177.72 41.72, 191.93 50.84 M165.47 34.3 C173.07 39.21, 179.16 43.48, 190.14 50.21" stroke="#000000" stroke-width="1" fill="none"></path></g></g><mask id="mask-0B6nk4cezJZcQloUtDxdk"><rect x="0" y="0" fill="#fff" width="496" height="495.0000000000001"></rect><rect x="283.921875" y="358.00000000000017" fill="#000" width="35.15625" height="24" opacity="1"></rect></mask><g transform="translate(283.921875 358) rotate(0 17.994796121958643 12.274874199768533)"><text x="17.578125" y="0" font-family="Cascadia, Segoe UI Emoji" font-size="20px" fill="#000000" text-anchor="middle" style="white-space: pre;" direction="ltr" dominant-baseline="text-before-edge">ACK</text></g></svg>
