<svg version="1.1" xmlns="http://www.w3.org/2000/svg" viewBox="0 0 581 243.00000000000003" width="581" height="243.00000000000003">
  <!-- svg-source:excalidraw -->
  
  <defs>
    <style class="style-fonts">
      @font-face {
        font-family: "Virgil";
        src: url("https://excalidraw.com/Virgil.woff2");
      }
      @font-face {
        font-family: "Cascadia";
        src: url("https://excalidraw.com/Cascadia.woff2");
      }
    </style>
  </defs>
  <rect x="0" y="0" width="581" height="243.00000000000003" fill="#ffffff"></rect><g stroke-linecap="round" transform="translate(10 10) rotate(0 94 17.5)"><path d="M7.8 -1.93 L182.44 -0.34 L188.43 3.89 L188.54 28.3 L184.05 32.79 L178.8 36.13 L5.84 32.64 L0.51 28.34 L1.89 9.56 L1.97 1.5 L6.93 -1.21" stroke="none" stroke-width="0" fill="#ced4da"></path><path d="M8.75 0 M8.75 0 C49.43 1.04, 88.41 0.63, 179.25 0 M8.75 0 C46.87 1.16, 87.43 1.31, 179.25 0 M179.25 0 C186.41 -0.2, 187.63 2.94, 188 8.75 M179.25 0 C184.43 -0.98, 186.12 2.66, 188 8.75 M188 8.75 C187.37 13.07, 186.95 21.38, 188 26.25 M188 8.75 C187.57 13.13, 187.7 15.48, 188 26.25 M188 26.25 C186.52 30.91, 186.91 33.47, 179.25 35 M188 26.25 C187.37 30.82, 186.43 32.97, 179.25 35 M179.25 35 C142.1 34.64, 110.24 31.76, 8.75 35 M179.25 35 C138.61 34.76, 96.33 34.79, 8.75 35 M8.75 35 C3.05 34.84, -0.41 33.62, 0 26.25 M8.75 35 C4.23 35.2, -0.26 33.55, 0 26.25 M0 26.25 C0.33 18.44, 1.09 12.15, 0 8.75 M0 26.25 C-0.39 22.02, -0.68 17.36, 0 8.75 M0 8.75 C-0.83 4.3, 1.9 -0.88, 8.75 0 M0 8.75 C1.52 4.62, 4.58 -0.68, 8.75 0" stroke="#364fc7" stroke-width="1" fill="none"></path></g><g transform="translate(66.421875 15.5) rotate(0 37.578125 12)"><text x="37.578125" y="0" font-family="Cascadia, Segoe UI Emoji" font-size="20px" fill="#364fc7" text-anchor="middle" style="white-space: pre;" direction="ltr" dominant-baseline="text-before-edge">DNS解析</text></g><g stroke-linecap="round" transform="translate(18 115.00000000000003) rotate(0 79.5 17)"><path d="M8.5 0 M8.5 0 C58.66 -1.91, 104.61 -2.33, 150.5 0 M8.5 0 C57.04 -0.56, 106.37 -0.67, 150.5 0 M150.5 0 C156.98 0.14, 157.04 2.46, 159 8.5 M150.5 0 C154.79 -2.15, 159.15 4.14, 159 8.5 M159 8.5 C159.33 13.48, 160.65 19.81, 159 25.5 M159 8.5 C159.17 13.94, 158.69 18.43, 159 25.5 M159 25.5 C157.34 30.56, 157.29 32.91, 150.5 34 M159 25.5 C159.55 31.86, 156.39 31.81, 150.5 34 M150.5 34 C119.74 35.65, 88.86 34.87, 8.5 34 M150.5 34 C102.87 35.56, 53.34 34.84, 8.5 34 M8.5 34 C1.6 34.58, -0.87 31.12, 0 25.5 M8.5 34 C1.8 35.13, 1.33 31.65, 0 25.5 M0 25.5 C0.75 21.71, -0.22 14.69, 0 8.5 M0 25.5 C-0.19 18.75, -0.48 11.74, 0 8.5 M0 8.5 C-1.9 1.51, 3.48 -0.73, 8.5 0 M0 8.5 C1.32 3.93, 1.36 0.79, 8.5 0" stroke="#000000" stroke-width="1" fill="none"></path></g><g transform="translate(67.5 120.00000000000003) rotate(0 30 12)"><text x="30" y="0" font-family="Cascadia, Segoe UI Emoji" font-size="20px" fill="#000000" text-anchor="middle" style="white-space: pre;" direction="ltr" dominant-baseline="text-before-edge">发送端</text></g><g stroke-linecap="round" transform="translate(412 48.00000000000003) rotate(0 79.5 17)"><path d="M8.5 0 M8.5 0 C38.02 -1.92, 68.33 -0.89, 150.5 0 M8.5 0 C36.98 -0.49, 65.05 -0.63, 150.5 0 M150.5 0 C155.39 0.06, 157.52 2.21, 159 8.5 M150.5 0 C156.83 -1.44, 161.07 2.17, 159 8.5 M159 8.5 C159.6 15.5, 158.39 20.51, 159 25.5 M159 8.5 C158.28 13.61, 159.45 19.01, 159 25.5 M159 25.5 C159.41 30.5, 157.68 35.34, 150.5 34 M159 25.5 C161.15 32.89, 158.36 33.9, 150.5 34 M150.5 34 C105.76 31.08, 64.37 33.21, 8.5 34 M150.5 34 C96.29 31.85, 43.7 33.6, 8.5 34 M8.5 34 C2.69 33.97, 1.61 30.99, 0 25.5 M8.5 34 C1.52 32.23, -0.02 33.33, 0 25.5 M0 25.5 C-0.07 18.7, -0.14 13.98, 0 8.5 M0 25.5 C-0.1 19.95, -0.71 14.18, 0 8.5 M0 8.5 C0.84 3.9, 4.75 0.17, 8.5 0 M0 8.5 C-0.22 3.88, 3.7 0.28, 8.5 0" stroke="#000000" stroke-width="1" fill="none"></path></g><g transform="translate(473.921875 53.00000000000003) rotate(0 17.578125 12)"><text x="17.578125" y="0" font-family="Cascadia, Segoe UI Emoji" font-size="20px" fill="#000000" text-anchor="middle" style="white-space: pre;" direction="ltr" dominant-baseline="text-before-edge">DNS</text></g><g mask="url(#mask-CiG0sHG_oeSXrsdTZe2ED)" stroke-linecap="round"><g transform="translate(187 104.00000000000003) rotate(0 101.56481811858703 -19.46137264266612)"><path d="M0.69 0.57 C34.16 -5.62, 167.64 -31.06, 201.23 -37.59 M-0.41 -0.18 C33.41 -6.7, 169.87 -33.26, 203.54 -39.49" stroke="#000000" stroke-width="1" fill="none"></path></g><g transform="translate(187 104.00000000000003) rotate(0 101.56481811858703 -19.46137264266612)"><path d="M178.72 -25.42 C187.08 -28.95, 193.97 -35.74, 205.16 -40.52 M178.29 -23.27 C184.29 -27.98, 189.39 -30.55, 204.02 -40.45" stroke="#000000" stroke-width="1" fill="none"></path></g><g transform="translate(187 104.00000000000003) rotate(0 101.56481811858703 -19.46137264266612)"><path d="M174.88 -45.57 C184.44 -42.43, 192.61 -42.52, 205.16 -40.52 M174.44 -43.43 C181.44 -43.21, 187.49 -40.87, 204.02 -40.45" stroke="#000000" stroke-width="1" fill="none"></path></g></g><mask id="mask-CiG0sHG_oeSXrsdTZe2ED"><rect x="0" y="0" fill="#fff" width="489" height="242.00000000000006"></rect><rect x="236.28125" y="73" fill="#000" width="103.4375" height="24" opacity="1"></rect></mask><g transform="translate(236.28125 73) rotate(0 52.28356811858703 11.538627357333894)"><text x="51.71875" y="0" font-family="Cascadia, Segoe UI Emoji" font-size="20px" fill="#000000" text-anchor="middle" style="white-space: pre;" direction="ltr" dominant-baseline="text-before-edge">1.发送域名</text></g><g mask="url(#mask-vrlW0itA4iT2kzmEmtvgX)" stroke-linecap="round"><g transform="translate(401.45162509002694 100.56842844031121) rotate(0 -102.0606074604716 19.86042169767748)"><path d="M0.36 -0.66 C-33.74 5.93, -169.49 32.17, -203.51 39.05 M-0.91 1.6 C-35.27 8.42, -170.52 34.17, -204.48 40.38" stroke="#000000" stroke-width="1" fill="none"></path></g><g transform="translate(401.45162509002694 100.56842844031121) rotate(0 -102.0606074604716 19.86042169767748)"><path d="M-179.77 25.02 C-189.55 30.73, -197.15 35.71, -202.79 41.12 M-179.34 25.97 C-184.62 28.86, -191.22 31.53, -205.44 39.81" stroke="#000000" stroke-width="1" fill="none"></path></g><g transform="translate(401.45162509002694 100.56842844031121) rotate(0 -102.0606074604716 19.86042169767748)"><path d="M-175.99 45.19 C-187.16 42.96, -196.25 39.99, -202.79 41.12 M-175.56 46.14 C-181.61 44.19, -189.12 42.01, -205.44 39.81" stroke="#000000" stroke-width="1" fill="none"></path></g></g><mask id="mask-vrlW0itA4iT2kzmEmtvgX"><rect x="0" y="0" fill="#fff" width="704.9032501800539" height="240.00000000000003"></rect><rect x="256.28831254501347" y="108.28421422015563" fill="#000" width="86.875" height="24" opacity="1"></rect></mask><g transform="translate(256.28831254501347 108.28421422015563) rotate(0 43.10270508454187 12.144635917833057)"><text x="43.4375" y="0" font-family="Cascadia, Segoe UI Emoji" font-size="20px" fill="#000000" text-anchor="middle" style="white-space: pre;" direction="ltr" dominant-baseline="text-before-edge">2.返回IP</text></g><g stroke-linecap="round" transform="translate(352 199.00000000000006) rotate(0 79.5 16.999999999999986)"><path d="M8.5 0 M8.5 0 C59.1 -0.95, 110.1 -1.07, 150.5 0 M8.5 0 C44.54 -0.93, 80.5 -1.14, 150.5 0 M150.5 0 C155.34 1.39, 157.98 1.95, 159 8.5 M150.5 0 C157.68 1.71, 160.67 2.15, 159 8.5 M159 8.5 C157.18 13.2, 158.32 19.24, 159 25.5 M159 8.5 C158.04 12.25, 158.57 15.52, 159 25.5 M159 25.5 C158.23 32.05, 157.41 34.39, 150.5 34 M159 25.5 C157.34 30.14, 155.91 35.47, 150.5 34 M150.5 34 C105.12 35.05, 60.6 36.43, 8.5 34 M150.5 34 C107.47 35.14, 63.7 34.94, 8.5 34 M8.5 34 C1.56 35.41, 0.98 29.8, 0 25.5 M8.5 34 C4.38 36.12, 0.93 29.48, 0 25.5 M0 25.5 C-0.93 21.14, 0.4 19.15, 0 8.5 M0 25.5 C0.61 20.7, -0.25 15.32, 0 8.5 M0 8.5 C1.05 3.37, 1.18 -1.92, 8.5 0 M0 8.5 C-1.99 2.7, 2.01 0.72, 8.5 0" stroke="#000000" stroke-width="1" fill="none"></path></g><g transform="translate(401.5 204.00000000000006) rotate(0 30 11.999999999999986)"><text x="30" y="0" font-family="Cascadia, Segoe UI Emoji" font-size="20px" fill="#000000" text-anchor="middle" style="white-space: pre;" direction="ltr" dominant-baseline="text-before-edge">服务器</text></g><g mask="url(#mask-4Bd9KUnUwyu7fyHNmbls-)" stroke-linecap="round"><g transform="translate(171 166.00000000000003) rotate(0 85.4808854301275 23.49059767886996)"><path d="M-1.12 -1.18 C27.18 6.51, 141.28 38.7, 169.93 47.1 M0.49 0.81 C29.13 8.55, 143.84 40.39, 172.08 48.17" stroke="#000000" stroke-width="1" fill="none"></path></g><g transform="translate(171 166.00000000000003) rotate(0 85.4808854301275 23.49059767886996)"><path d="M140.2 48.76 C150.01 49.77, 162.86 49.19, 172.05 49.77 M142.17 51.48 C151.51 49.44, 158.69 49.29, 171.7 48.02" stroke="#000000" stroke-width="1" fill="none"></path></g><g transform="translate(171 166.00000000000003) rotate(0 85.4808854301275 23.49059767886996)"><path d="M145.67 28.98 C153.92 36.12, 165.06 41.73, 172.05 49.77 M147.64 31.7 C155.27 35.37, 160.86 40.97, 171.7 48.02" stroke="#000000" stroke-width="1" fill="none"></path></g></g><mask id="mask-4Bd9KUnUwyu7fyHNmbls-"><rect x="0" y="0" fill="#fff" width="442" height="314"></rect><rect x="213.0625" y="178" fill="#000" width="86.875" height="24" opacity="1"></rect></mask><g transform="translate(213.0625 178) rotate(0 43.4183854301275 11.49059767886996)"><text x="43.4375" y="0" font-family="Cascadia, Segoe UI Emoji" font-size="20px" fill="#000000" text-anchor="middle" style="white-space: pre;" direction="ltr" dominant-baseline="text-before-edge">3.访问IP</text></g></svg>
