<svg version="1.1" xmlns="http://www.w3.org/2000/svg" viewBox="0 0 912 893.0000000000002" width="912" height="893.0000000000002">
  <!-- svg-source:excalidraw -->
  
  <defs>
    <style class="style-fonts">
      @font-face {
        font-family: "Virgil";
        src: url("https://excalidraw.com/Virgil.woff2");
      }
      @font-face {
        font-family: "Cascadia";
        src: url("https://excalidraw.com/Cascadia.woff2");
      }
    </style>
  </defs>
  <rect x="0" y="0" width="912" height="893.0000000000002" fill="#ffffff"></rect><g stroke-linecap="round" transform="translate(80 10) rotate(0 136.5 17)"><path d="M7.55 -1.93 L263.86 -0.88 L269.19 -0.5 L273.56 3 L273.97 23.84 L270.42 33.01 L265.42 32.18 L8.46 32.27 L4.01 32.68 L-0.22 24.81 L-1.29 3.57 L0.78 1.36 L7.83 1" stroke="none" stroke-width="0" fill="#ced4da"></path><path d="M8.5 0 M8.5 0 C90.17 -0.61, 172.55 -1.41, 264.5 0 M8.5 0 C72.21 0.72, 134.7 0.81, 264.5 0 M264.5 0 C269.6 -0.85, 271.37 2.61, 273 8.5 M264.5 0 C270.47 1.45, 273.84 1.86, 273 8.5 M273 8.5 C271.27 11.34, 271.38 15.82, 273 25.5 M273 8.5 C272.33 14.64, 273.74 21.13, 273 25.5 M273 25.5 C272.46 30.07, 271.34 32.23, 264.5 34 M273 25.5 C270.88 30.16, 268.47 32.01, 264.5 34 M264.5 34 C175.18 30.51, 88.26 32.78, 8.5 34 M264.5 34 C208.03 32.37, 151.29 33.06, 8.5 34 M8.5 34 C3.97 34.17, -0.23 32.45, 0 25.5 M8.5 34 C4.05 34.9, -1.48 31.69, 0 25.5 M0 25.5 C-0.87 23.54, 1.34 18.03, 0 8.5 M0 25.5 C-0.25 20.52, -0.33 13.98, 0 8.5 M0 8.5 C1.32 4.32, 4.28 -0.59, 8.5 0 M0 8.5 C0.47 0.54, 3.46 -2.24, 8.5 0" stroke="#364fc7" stroke-width="1" fill="none"></path></g><g transform="translate(93.0625 15) rotate(0 123.4375 12)"><text x="123.4375" y="0" font-family="Cascadia, Segoe UI Emoji" font-size="20px" fill="#364fc7" text-anchor="middle" style="white-space: pre;" direction="ltr" dominant-baseline="text-before-edge">各种协议与HTTP协议的关系</text></g><g stroke-linecap="round" transform="translate(110 94.00000000000006) rotate(0 42 50.5)"><path d="M21 0 M21 0 C34.12 -1.21, 52.46 0.29, 63 0 M21 0 C31 -1.03, 41.71 -1.02, 63 0 M63 0 C78.32 1.32, 85.29 6.49, 84 21 M63 0 C76.48 0.61, 82.89 7.27, 84 21 M84 21 C85.16 36.42, 85.21 54.03, 84 80 M84 21 C83.76 35.55, 83.7 48.05, 84 80 M84 80 C82.75 93.3, 78.09 102.8, 63 101 M84 80 C84.25 95.1, 75.52 103.03, 63 101 M63 101 C48.88 101.87, 35.31 100.34, 21 101 M63 101 C53.26 100.39, 44.1 101.1, 21 101 M21 101 C8.32 99.77, -1.63 93.81, 0 80 M21 101 C5.09 100.94, -0.72 94.5, 0 80 M0 80 C-0.16 65.59, -1.54 54.35, 0 21 M0 80 C-0.23 57.3, 0.97 33.87, 0 21 M0 21 C1.97 8.33, 7.53 0.76, 21 0 M0 21 C1.24 4.76, 6.17 -0.21, 21 0" stroke="#364fc7" stroke-width="1" fill="none"></path></g><g transform="translate(122 132.50000000000006) rotate(0 30 12)"><text x="30" y="0" font-family="Cascadia, Segoe UI Emoji" font-size="20px" fill="#364fc7" text-anchor="middle" style="white-space: pre;" direction="ltr" dominant-baseline="text-before-edge">客户端</text></g><g mask="url(#mask-E4XhoRqGJTPGV2sbNXqh7)" stroke-linecap="round"><g transform="translate(198.6505190311418 115.9029209042603) rotate(0 289.16599860789006 -0.09346987462605227)"><path d="M0.78 -1.08 C96.98 -1.08, 480.5 -1.25, 576.39 -1.15 M-0.27 0.97 C96.37 1.17, 482.16 -0.16, 578.6 -0.21" stroke="#364fc7" stroke-width="1" fill="none"></path></g><g transform="translate(198.6505190311418 115.9029209042603) rotate(0 289.16599860789006 -0.09346987462605227)"><path d="M548.64 8.51 C555.13 5.55, 562.8 5.88, 578.17 1.13 M551.14 9.21 C559.49 6.38, 569.66 2.15, 578.79 -0.17" stroke="#364fc7" stroke-width="1" fill="none"></path></g><g transform="translate(198.6505190311418 115.9029209042603) rotate(0 289.16599860789006 -0.09346987462605227)"><path d="M548.6 -12.01 C554.9 -10.23, 562.59 -5.16, 578.17 1.13 M551.09 -11.31 C559.49 -7.22, 569.68 -4.54, 578.79 -0.17" stroke="#364fc7" stroke-width="1" fill="none"></path></g></g><mask id="mask-E4XhoRqGJTPGV2sbNXqh7"><rect x="0" y="0" fill="#fff" width="876" height="215.903185175591"></rect><rect x="443.8877595155709" y="103.90278876859492" fill="#000" width="86.875" height="24" opacity="1"></rect></mask><g transform="translate(443.8877595155709 103.90278876859495) rotate(0 43.928758123460966 11.906662261039301)"><text x="43.4375" y="0" font-family="Cascadia, Segoe UI Emoji" font-size="20px" fill="#364fc7" text-anchor="middle" style="white-space: pre;" direction="ltr" dominant-baseline="text-before-edge">1.询问IP</text></g><g mask="url(#mask-JdmMw5MguCwx5gqVgyzsd)" stroke-linecap="round"><g transform="translate(775 156.90397364996622) rotate(0 -281.01909720361164 0.9539548477939235)"><path d="M0.17 1.02 C-93.27 1.09, -467.49 0.36, -561.25 0.15 M-1.2 0.51 C-94.74 0.81, -469.06 1.69, -562.21 1.76" stroke="#000000" stroke-width="1" fill="none"></path></g><g transform="translate(775 156.90397364996622) rotate(0 -281.01909720361164 0.9539548477939235)"><path d="M-532.34 -8.58 C-540.8 -7.89, -548.45 -3.97, -562.02 1.1 M-534.46 -9.02 C-540.16 -7.1, -545.44 -4.88, -562.56 1.31" stroke="#000000" stroke-width="1" fill="none"></path></g><g transform="translate(775 156.90397364996622) rotate(0 -281.01909720361164 0.9539548477939235)"><path d="M-532.3 11.95 C-540.73 7.54, -548.39 6.38, -562.02 1.1 M-534.43 11.51 C-540.03 9.14, -545.32 7.1, -562.56 1.31" stroke="#000000" stroke-width="1" fill="none"></path></g></g><mask id="mask-JdmMw5MguCwx5gqVgyzsd"><rect x="0" y="0" fill="#fff" width="1436.2352941176468" height="256.9045019842952"></rect><rect x="450.9448529411766" y="144.90370948280173" fill="#000" width="86.875" height="24" opacity="1"></rect></mask><g transform="translate(450.9448529411766 144.90370948280167) rotate(0 43.036049855211786 12.95421901495844)"><text x="43.4375" y="0" font-family="Cascadia, Segoe UI Emoji" font-size="20px" fill="#000000" text-anchor="middle" style="white-space: pre;" direction="ltr" dominant-baseline="text-before-edge">2.返回IP</text></g><g stroke-linecap="round" transform="translate(84 62.00000000000003) rotate(0 361.5 182.50000000000006)"><path d="M32 0 M32 0 C222.23 0.58, 410.63 1.22, 691 0 M691 0 C711.88 1.46, 724.85 10.15, 723 32 M723 32 C721.6 134.08, 721.45 234.91, 723 333 M723 333 C721.39 354.51, 712.88 365.06, 691 365 M691 365 C520.99 366.7, 352.36 365.47, 32 365 M32 365 C10.86 363.65, 1.13 355.14, 0 333 M0 333 C-1.63 220.18, -0.4 108.3, 0 32 M0 32 C1.1 12.45, 12.46 -1.57, 32 0" stroke="#364fc7" stroke-width="1.5" fill="none" stroke-dasharray="8 9"></path></g><g stroke-linecap="round" transform="translate(93 233.00000000000003) rotate(0 207.5 29)"><path d="M14.5 0 M14.5 0 C101.26 -2.9, 186.64 -2.91, 400.5 0 M14.5 0 C149.88 -0.35, 286.59 0.02, 400.5 0 M400.5 0 C411.72 -1.42, 415.16 3.3, 415 14.5 M400.5 0 C409.28 -0.47, 416.27 2.79, 415 14.5 M415 14.5 C412.76 20.69, 415.77 29.74, 415 43.5 M415 14.5 C413.98 20.5, 414.9 26.9, 415 43.5 M415 43.5 C413.8 53.77, 410.52 56.91, 400.5 58 M415 43.5 C414.7 55.36, 411.58 57.54, 400.5 58 M400.5 58 C291.69 57.94, 182.37 57.03, 14.5 58 M400.5 58 C318.67 58.37, 235.83 58.87, 14.5 58 M14.5 58 C6.7 56.36, 0.02 51.75, 0 43.5 M14.5 58 C4.4 60.21, -0.15 53.28, 0 43.5 M0 43.5 C0.64 36.41, 0.14 26.86, 0 14.5 M0 43.5 C0.95 33.35, -0.66 22.05, 0 14.5 M0 14.5 C-1.73 5.85, 4.35 -1.79, 14.5 0 M0 14.5 C1.96 6.32, 2.61 1.84, 14.5 0" stroke="#364fc7" stroke-width="1" fill="none"></path></g><g transform="translate(119.484375 238.00000000000003) rotate(0 181.015625 24)"><text x="181.015625" y="0" font-family="Cascadia, Segoe UI Emoji" font-size="20px" fill="#364fc7" text-anchor="middle" style="white-space: pre;" direction="ltr" dominant-baseline="text-before-edge">HTTP协议</text><text x="181.015625" y="24" font-family="Cascadia, Segoe UI Emoji" font-size="20px" fill="#364fc7" text-anchor="middle" style="white-space: pre;" direction="ltr" dominant-baseline="text-before-edge">生成针对目标Web服务器的HTTP请求报文</text></g><g stroke-linecap="round" transform="translate(784 88.00000000000006) rotate(0 37.5 43)"><path d="M16.76 0.07 L58.69 1.22 L65.79 0.9 L72.1 9.17 L76.97 18.68 L75.91 67.89 L73.15 74.9 L65.84 83.95 L54.41 86.48 L13.7 86.93 L5.98 85.33 L4.13 79.06 L-0.76 67.37 L1.17 14.55 L3.22 3.14 L9.55 2.21 L20.13 1.75" stroke="none" stroke-width="0" fill="#ffffff"></path><path d="M18.75 0 M18.75 0 C29.13 -0.67, 42.16 0.07, 56.25 0 M18.75 0 C30.98 -1.12, 43.79 -1.12, 56.25 0 M56.25 0 C67.71 1.11, 74.99 4.49, 75 18.75 M56.25 0 C71.01 2.1, 72.7 7.77, 75 18.75 M75 18.75 C74.85 31.91, 73.55 48.01, 75 67.25 M75 18.75 C74.5 35.73, 74.2 53.5, 75 67.25 M75 67.25 C76.33 79.9, 67.23 86.39, 56.25 86 M75 67.25 C73.05 80.7, 69.89 84.27, 56.25 86 M56.25 86 C45.91 84.25, 39.03 83.79, 18.75 86 M56.25 86 C42.08 86.79, 29.71 85.12, 18.75 86 M18.75 86 C7.28 86.91, -1 78.67, 0 67.25 M18.75 86 C4.69 85.8, -1.96 77.65, 0 67.25 M0 67.25 C-0.13 52.42, 0.72 38.97, 0 18.75 M0 67.25 C-0.09 54.17, -0.65 42.43, 0 18.75 M0 18.75 C1.35 6.44, 7.58 1.54, 18.75 0 M0 18.75 C-1.21 7.11, 5.97 2.05, 18.75 0" stroke="#000000" stroke-width="1" fill="none"></path></g><g transform="translate(803.921875 119.00000000000006) rotate(0 17.578125 12)"><text x="17.578125" y="0" font-family="Cascadia, Segoe UI Emoji" font-size="20px" fill="#000000" text-anchor="middle" style="white-space: pre;" direction="ltr" dominant-baseline="text-before-edge">DNS</text></g><g stroke-linecap="round" transform="translate(93 315.0000000000001) rotate(0 283.5 29)"><path d="M14.5 0 M14.5 0 C226.41 -0.43, 439.16 -0.34, 552.5 0 M14.5 0 C208.26 -0.12, 403.19 -0.42, 552.5 0 M552.5 0 C560.32 1.54, 568.6 5.68, 567 14.5 M552.5 0 C561.51 1.23, 567.69 6.77, 567 14.5 M567 14.5 C566.42 20.44, 566.34 29.74, 567 43.5 M567 14.5 C566.72 20.99, 567.46 28.38, 567 43.5 M567 43.5 C568.88 52.11, 563.23 58.22, 552.5 58 M567 43.5 C567.63 51.65, 561.72 57.23, 552.5 58 M552.5 58 C376.11 57.61, 200.48 58.4, 14.5 58 M552.5 58 C437.94 58.78, 322.73 58.94, 14.5 58 M14.5 58 C5.93 58.36, -0.27 53.57, 0 43.5 M14.5 58 C4.59 57.97, 0.92 51.67, 0 43.5 M0 43.5 C-0.72 35.02, 1.96 22.92, 0 14.5 M0 43.5 C0.62 37.06, -0.8 29.09, 0 14.5 M0 14.5 C-0.06 5.68, 6.25 -0.12, 14.5 0 M0 14.5 C-0.08 5.52, 3.92 0.28, 14.5 0" stroke="#364fc7" stroke-width="1" fill="none"></path></g><g transform="translate(103.0625 320.0000000000001) rotate(0 273.4375 24)"><text x="273.4375" y="0" font-family="Cascadia, Segoe UI Emoji" font-size="20px" fill="#364fc7" text-anchor="middle" style="white-space: pre;" direction="ltr" dominant-baseline="text-before-edge">TCP协议</text><text x="273.4375" y="24" font-family="Cascadia, Segoe UI Emoji" font-size="20px" fill="#364fc7" text-anchor="middle" style="white-space: pre;" direction="ltr" dominant-baseline="text-before-edge">将HTTP请求报文分割成报文段，将每个报文段可靠地传给对方</text></g><g stroke-linecap="round" transform="translate(539 240.00000000000003) rotate(0 118.5 17)"><path d="M8.5 0 M8.5 0 C81.54 0.78, 155.51 2.13, 228.5 0 M228.5 0 C232.7 -1.29, 238.95 4.05, 237 8.5 M237 8.5 C238.46 12.1, 235.33 17.56, 237 25.5 M237 25.5 C236.97 31.76, 234.7 33.56, 228.5 34 M228.5 34 C169.85 36.19, 109.29 37.48, 8.5 34 M8.5 34 C3.62 35.39, 0.22 32.51, 0 25.5 M0 25.5 C0.2 21.73, 0.37 14.23, 0 8.5 M0 8.5 C0.34 2.4, 3.87 1.63, 8.5 0" stroke="#087f5b" stroke-width="1.5" fill="none" stroke-dasharray="8 9"></path></g><g transform="translate(575.78125 245.00000000000003) rotate(0 81.71875 12)"><text x="81.71875" y="0" font-family="Cascadia, Segoe UI Emoji" font-size="20px" fill="#087f5b" text-anchor="middle" style="white-space: pre;" direction="ltr" dominant-baseline="text-before-edge">请给我xx网页资源</text></g><g stroke-linecap="round" transform="translate(674 327.5) rotate(0 9.044117647058783 15.5)"><path d="M4.52 0 M4.52 0 C6.39 -0.86, 8.33 -0.18, 13.57 0 M13.57 0 C15.73 -1.12, 17.44 0.52, 18.09 4.52 M18.09 4.52 C19.32 11.66, 17.48 17.18, 18.09 26.48 M18.09 26.48 C17.7 30.53, 14.67 30.99, 13.57 31 M13.57 31 C11.28 31.02, 9.14 30.65, 4.52 31 M4.52 31 C0.81 32.68, 0.16 31.43, 0 26.48 M0 26.48 C-0.35 17.06, -0.1 10.86, 0 4.52 M0 4.52 C0.9 3.43, 0.36 -1.96, 4.52 0" stroke="#087f5b" stroke-width="1.5" fill="none" stroke-dasharray="8 9"></path></g><g stroke-linecap="round" transform="translate(696.2389705882356 327.5) rotate(0 9.044117647058783 15.5)"><path d="M4.52 0 M4.52 0 C6.98 -0.51, 9.95 0.06, 13.57 0 M13.57 0 C17.16 1.01, 17.91 0.32, 18.09 4.52 M18.09 4.52 C16.99 12.64, 16.69 18.31, 18.09 26.48 M18.09 26.48 C17.33 30.42, 16.58 30.86, 13.57 31 M13.57 31 C10.74 30.94, 7.35 31.56, 4.52 31 M4.52 31 C2.43 31.54, -0.3 29.66, 0 26.48 M0 26.48 C-0.35 16.89, -1.6 11.16, 0 4.52 M0 4.52 C0.6 -0.47, 0.33 -0.75, 4.52 0" stroke="#087f5b" stroke-width="1.5" fill="none" stroke-dasharray="8 9"></path></g><g stroke-linecap="round" transform="translate(718.4779411764707 327.5) rotate(0 9.044117647058783 15.5)"><path d="M4.52 0 M4.52 0 C6.97 0.28, 9.69 -0.06, 13.57 0 M13.57 0 C15.4 -0.04, 17.59 -0.33, 18.09 4.52 M18.09 4.52 C18.97 9.2, 19.19 15.39, 18.09 26.48 M18.09 26.48 C17.95 30.01, 15.4 31.2, 13.57 31 M13.57 31 C11.28 31.38, 8.14 30.83, 4.52 31 M4.52 31 C1.68 32.04, -1.92 30.17, 0 26.48 M0 26.48 C0.34 21.11, -1.77 13.36, 0 4.52 M0 4.52 C-0.75 -0.04, 2.29 0.13, 4.52 0" stroke="#087f5b" stroke-width="1.5" fill="none" stroke-dasharray="8 9"></path></g><g stroke-linecap="round" transform="translate(740.7169117647059 327.5) rotate(0 9.044117647058783 15.5)"><path d="M4.52 0 M4.52 0 C7.24 -0.58, 10.11 -0.27, 13.57 0 M13.57 0 C14.75 -1.05, 19.66 0.17, 18.09 4.52 M18.09 4.52 C18 11.75, 18.52 18.07, 18.09 26.48 M18.09 26.48 C18.29 29.77, 16.44 30.29, 13.57 31 M13.57 31 C10.17 31.1, 7.51 30.16, 4.52 31 M4.52 31 C2.18 30.44, -1.86 27.68, 0 26.48 M0 26.48 C-1.25 19, -1.61 13.79, 0 4.52 M0 4.52 C0.13 2.02, 0.53 -1.24, 4.52 0" stroke="#087f5b" stroke-width="1.5" fill="none" stroke-dasharray="8 9"></path></g><g stroke-linecap="round" transform="translate(762.955882352941 327.5) rotate(0 9.044117647058783 15.5)"><path d="M4.52 0 M4.52 0 C6.93 -0.83, 9.31 0.71, 13.57 0 M13.57 0 C15.24 0.71, 17.33 2.44, 18.09 4.52 M18.09 4.52 C16.89 11.31, 18.35 17.54, 18.09 26.48 M18.09 26.48 C17.38 30.71, 17.5 31.54, 13.57 31 M13.57 31 C10.12 31.35, 8.16 30.2, 4.52 31 M4.52 31 C-0.3 31.13, 0.6 27.52, 0 26.48 M0 26.48 C0.86 21.31, 0.6 14.92, 0 4.52 M0 4.52 C-1.24 0, 3.17 1.55, 4.52 0" stroke="#087f5b" stroke-width="1.5" fill="none" stroke-dasharray="8 9"></path></g><g stroke-linecap="round" transform="translate(827 439) rotate(0 37.5 43)"><path d="M18.75 0 M18.75 0 C25.53 -1.17, 33.1 -0.14, 56.25 0 M18.75 0 C26.25 0.06, 33.35 -0.08, 56.25 0 M56.25 0 C67.98 0.06, 73.52 5.62, 75 18.75 M56.25 0 C69.41 -1.44, 77.07 5.59, 75 18.75 M75 18.75 C75.84 36.8, 74.42 52.52, 75 67.25 M75 18.75 C74.36 33.83, 75.73 49.24, 75 67.25 M75 67.25 C75.41 79.08, 70.26 87.34, 56.25 86 M75 67.25 C77.15 81.48, 70.94 85.9, 56.25 86 M56.25 86 C43.46 83.84, 34.03 85.98, 18.75 86 M56.25 86 C41.28 84.88, 27.93 86.63, 18.75 86 M18.75 86 C6.1 85.97, 1.61 79.57, 0 67.25 M18.75 86 C4.94 84.23, -0.02 81.91, 0 67.25 M0 67.25 C0.1 48.95, 0.02 33.09, 0 18.75 M0 67.25 C-0.32 51.62, -1.04 35.72, 0 18.75 M0 18.75 C0.84 7.32, 8.17 0.17, 18.75 0 M0 18.75 C-0.22 7.3, 7.12 0.28, 18.75 0" stroke="#000000" stroke-width="1" fill="none"></path></g><g transform="translate(834.5 470) rotate(0 30 12)"><text x="30" y="0" font-family="Cascadia, Segoe UI Emoji" font-size="20px" fill="#000000" text-anchor="middle" style="white-space: pre;" direction="ltr" dominant-baseline="text-before-edge">路由器</text></g><g stroke-linecap="round" transform="translate(85 530.0000000000001) rotate(0 361.5 176.50000000000006)"><path d="M32 0 M32 0 C240.4 2.05, 447.28 2.24, 691 0 M691 0 C713.58 1.34, 721.21 12.64, 723 32 M723 32 C723.53 128.78, 721.53 221.85, 723 321 M723 321 C724.51 343.94, 712.34 351.05, 691 353 M691 353 C478.1 351.6, 264.73 351.36, 32 353 M32 353 C12.58 353.49, 1.81 340.75, 0 321 M0 321 C-0.62 221.83, 0.35 123.95, 0 32 M0 32 C1.7 8.86, 9.81 1.61, 32 0" stroke="#a61e4d" stroke-width="1.5" fill="none" stroke-dasharray="8 9"></path></g><g stroke-linecap="round" transform="translate(176 414) rotate(0 295.5 64.00000000000006)"><path d="M31.66 -0.76 L565.82 -1.39 L573.13 0.85 L584.6 9.96 L590.91 18.17 L590.52 33.94 L591.21 104.37 L590.15 109.13 L584.45 120.91 L573.76 125.86 L559.28 128.53 L25.36 129.27 L11.05 121.74 L2.68 115.27 L2.86 110.85 L1.65 96.04 L1.01 33.43 L0.44 16.06 L8.01 9.36 L17.93 2.58 L32.11 0.27" stroke="none" stroke-width="0" fill="#ffffff"></path><path d="M32 0 M32 0 C181.8 1.16, 332.56 0.77, 559 0 M559 0 C581.36 -0.35, 592.92 12.29, 591 32 M591 32 C589.89 48.27, 590.45 66.37, 591 96 M591 96 C591.66 116.14, 580.64 129.89, 559 128 M559 128 C438.59 127.42, 318.2 127.12, 32 128 M32 128 C10.73 127.08, 1.07 117.91, 0 96 M0 96 C0.76 83.15, 0.88 66.05, 0 32 M0 32 C1.79 10.14, 10.27 0.96, 32 0" stroke="#000000" stroke-width="1.5" fill="none" stroke-dasharray="8 9"></path></g><g stroke-linecap="round" transform="translate(255 446) rotate(0 207.5 29)"><path d="M14.5 0 M14.5 0 C134.14 -0.85, 250.6 0.2, 400.5 0 M14.5 0 C150.05 -1.18, 285.3 -0.79, 400.5 0 M400.5 0 C411.05 1.42, 415.31 2.95, 415 14.5 M400.5 0 C411.35 0.56, 416.24 4.02, 415 14.5 M415 14.5 C416.27 22.61, 413.78 33.88, 415 43.5 M415 14.5 C415.9 21.24, 415.6 27.11, 415 43.5 M415 43.5 C416.48 55.15, 409.24 56.57, 400.5 58 M415 43.5 C413.45 54.43, 409.64 60.2, 400.5 58 M400.5 58 C306.71 59.8, 213.32 58.2, 14.5 58 M400.5 58 C303.89 56.45, 206.24 55.83, 14.5 58 M14.5 58 C2.9 59.87, -0.27 53.72, 0 43.5 M14.5 58 C6.67 55.96, 0.19 53.02, 0 43.5 M0 43.5 C0.85 33.73, 1.04 28.43, 0 14.5 M0 43.5 C-0.92 35.64, -0.64 27.43, 0 14.5 M0 14.5 C-0.04 6.35, 3.53 -0.49, 14.5 0 M0 14.5 C-1.55 2.54, 4.21 -0.34, 14.5 0" stroke="#000000" stroke-width="1" fill="none"></path></g><g transform="translate(312.5 451) rotate(0 150 24)"><text x="150" y="0" font-family="Cascadia, Segoe UI Emoji" font-size="20px" fill="#000000" text-anchor="middle" style="white-space: pre;" direction="ltr" dominant-baseline="text-before-edge">IP协议</text><text x="150" y="24" font-family="Cascadia, Segoe UI Emoji" font-size="20px" fill="#000000" text-anchor="middle" style="white-space: pre;" direction="ltr" dominant-baseline="text-before-edge">搜索对方地址，一边中转一边发送</text></g><g stroke-linecap="round"><g transform="translate(672 464.4742435608903) rotate(0 72.62419749684636 0.12122284282034457)"><path d="M-0.67 -1 C23.73 -0.78, 121.53 1.08, 145.92 1.25 M1.17 1.08 C25.54 0.99, 121.44 -0.41, 145.46 -0.42" stroke="#000000" stroke-width="1" fill="none"></path></g><g transform="translate(672 464.4742435608903) rotate(0 72.62419749684636 0.12122284282034457)"><path d="M115.68 11.61 C126.14 8.63, 131.32 4.4, 147.45 -1.86 M117.92 9.57 C127.95 6.87, 135.8 3.62, 145.87 -0.8" stroke="#000000" stroke-width="1" fill="none"></path></g><g transform="translate(672 464.4742435608903) rotate(0 72.62419749684636 0.12122284282034457)"><path d="M115.51 -8.91 C126 -6.54, 131.22 -5.44, 147.45 -1.86 M117.75 -10.95 C127.9 -6.56, 135.81 -2.71, 145.87 -0.8" stroke="#000000" stroke-width="1" fill="none"></path></g></g><mask></mask><g stroke-linecap="round"><g transform="translate(822 486) rotate(0 -75.395766728446 -0.4403804049205178)"><path d="M-0.47 -0.22 C-25.68 -0.13, -126.31 0.42, -151.22 0.56 M1.49 -1.38 C-23.9 -1.61, -127.01 -1.12, -152.28 -1.09" stroke="#000000" stroke-width="1" fill="none"></path></g><g transform="translate(822 486) rotate(0 -75.395766728446 -0.4403804049205178)"><path d="M-124.48 -11.8 C-131.17 -6.62, -139.6 -5.95, -153.89 -0.59 M-124.64 -10.87 C-135.81 -7.7, -145.94 -2.89, -153.16 -0.87" stroke="#000000" stroke-width="1" fill="none"></path></g><g transform="translate(822 486) rotate(0 -75.395766728446 -0.4403804049205178)"><path d="M-124.42 8.72 C-131.13 7.66, -139.57 2.09, -153.89 -0.59 M-124.57 9.65 C-135.74 4.69, -145.9 1.35, -153.16 -0.87" stroke="#000000" stroke-width="1" fill="none"></path></g></g><mask></mask><g stroke-linecap="round" transform="translate(104 564.0000000000002) rotate(0 283.5 29)"><path d="M14.5 0 M14.5 0 C204.65 0.64, 394.96 0.59, 552.5 0 M14.5 0 C151.92 -1.72, 289.31 -1.81, 552.5 0 M552.5 0 C561.34 1.39, 565.98 3.95, 567 14.5 M552.5 0 C563.68 1.71, 568.67 4.15, 567 14.5 M567 14.5 C564.77 22.91, 566.11 32.9, 567 43.5 M567 14.5 C565.79 20.89, 566.42 26.72, 567 43.5 M567 43.5 C566.23 54.05, 563.41 58.39, 552.5 58 M567 43.5 C565.34 52.14, 561.91 59.47, 552.5 58 M552.5 58 C379.02 58.95, 205.89 59.5, 14.5 58 M552.5 58 C389.79 60.02, 226.78 59.94, 14.5 58 M14.5 58 C3.56 59.41, 0.98 51.8, 0 43.5 M14.5 58 C6.38 60.12, 0.93 51.48, 0 43.5 M0 43.5 C-1.1 36.33, 0.47 31.95, 0 14.5 M0 43.5 C0.66 35.07, -0.35 25.97, 0 14.5 M0 14.5 C1.05 5.37, 3.18 -1.92, 14.5 0 M0 14.5 C-1.99 4.7, 4.01 0.72, 14.5 0" stroke="#a61e4d" stroke-width="1" fill="none"></path></g><g transform="translate(207.5 569.0000000000002) rotate(0 180 24)"><text x="180" y="0" font-family="Cascadia, Segoe UI Emoji" font-size="20px" fill="#a61e4d" text-anchor="middle" style="white-space: pre;" direction="ltr" dominant-baseline="text-before-edge">TCP协议</text><text x="180" y="24" font-family="Cascadia, Segoe UI Emoji" font-size="20px" fill="#a61e4d" text-anchor="middle" style="white-space: pre;" direction="ltr" dominant-baseline="text-before-edge">接收报文段，按序号重组之前的请求报文</text></g><g stroke-linecap="round" transform="translate(684.4779411764703 579.5000000000001) rotate(0 9.044117647058783 15.5)"><path d="M4.52 0 M4.52 0 C7.16 0.95, 9.64 0.92, 13.57 0 M13.57 0 C17.6 1.25, 16.52 1.5, 18.09 4.52 M18.09 4.52 C17.68 10.1, 17.68 13.39, 18.09 26.48 M18.09 26.48 C16.32 31.47, 18.22 30.28, 13.57 31 M13.57 31 C10.41 30.45, 6.77 30.74, 4.52 31 M4.52 31 C0.36 31.42, -1.08 29.14, 0 26.48 M0 26.48 C0.56 19.94, 1.65 7.62, 0 4.52 M0 4.52 C1.12 0.83, 1.32 0.05, 4.52 0" stroke="#087f5b" stroke-width="1.5" fill="none" stroke-dasharray="8 9"></path></g><g stroke-linecap="round" transform="translate(706.7169117647063 579.5000000000001) rotate(0 9.044117647058783 15.5)"><path d="M4.52 0 M4.52 0 C6.11 0.76, 9.08 0.48, 13.57 0 M13.57 0 C15.01 -0.01, 16.9 0.11, 18.09 4.52 M18.09 4.52 C17.81 7.38, 16.3 15.63, 18.09 26.48 M18.09 26.48 C19.73 28.77, 17.37 30.7, 13.57 31 M13.57 31 C10.9 30.76, 9.02 31.14, 4.52 31 M4.52 31 C0.42 30.65, 1.72 28.73, 0 26.48 M0 26.48 C1.51 19.68, 1.07 16.05, 0 4.52 M0 4.52 C-0.19 1.56, 1.36 -1.98, 4.52 0" stroke="#087f5b" stroke-width="1.5" fill="none" stroke-dasharray="8 9"></path></g><g stroke-linecap="round" transform="translate(728.9558823529414 579.5000000000001) rotate(0 9.044117647058783 15.5)"><path d="M4.52 0 M4.52 0 C8.58 0.48, 11 -0.09, 13.57 0 M13.57 0 C15.39 -1.4, 16.25 1.25, 18.09 4.52 M18.09 4.52 C16.3 13.41, 19.7 17.6, 18.09 26.48 M18.09 26.48 C18.88 29.2, 15.04 30.8, 13.57 31 M13.57 31 C10.82 31.17, 8.62 30.82, 4.52 31 M4.52 31 C3.22 30.24, -1.56 29.97, 0 26.48 M0 26.48 C0.95 17.1, -0.36 9.12, 0 4.52 M0 4.52 C-0.15 -0.47, 0.12 1.85, 4.52 0" stroke="#087f5b" stroke-width="1.5" fill="none" stroke-dasharray="8 9"></path></g><g stroke-linecap="round" transform="translate(751.1948529411766 579.5000000000001) rotate(0 9.044117647058783 15.5)"><path d="M4.52 0 M4.52 0 C7.38 -0.06, 11.11 -0.69, 13.57 0 M13.57 0 C14.74 -0.26, 18.38 1.26, 18.09 4.52 M18.09 4.52 C19.54 8.51, 18.68 13.66, 18.09 26.48 M18.09 26.48 C16.54 29.29, 15.51 29.56, 13.57 31 M13.57 31 C10.55 30.86, 9.29 30.67, 4.52 31 M4.52 31 C-0.05 31.48, 1.93 31.05, 0 26.48 M0 26.48 C-0.31 22.05, -0.27 15.54, 0 4.52 M0 4.52 C-1.39 3.36, 1.66 0.41, 4.52 0" stroke="#087f5b" stroke-width="1.5" fill="none" stroke-dasharray="8 9"></path></g><g stroke-linecap="round" transform="translate(773.4338235294117 579.5000000000001) rotate(0 9.04411764705901 15.5)"><path d="M4.52 0 M4.52 0 C7.26 -0.63, 10.25 -0.12, 13.57 0 M13.57 0 C16.87 -0.25, 16.39 -0.26, 18.09 4.52 M18.09 4.52 C19.06 12.99, 16.72 21.84, 18.09 26.48 M18.09 26.48 C17.02 28.05, 16.17 29.86, 13.57 31 M13.57 31 C11.44 30.64, 7.05 31.2, 4.52 31 M4.52 31 C3.44 32.56, -1.92 30.61, 0 26.48 M0 26.48 C-0.13 18.65, -1.37 16.63, 0 4.52 M0 4.52 C0.15 1.91, 2.32 -1.73, 4.52 0" stroke="#087f5b" stroke-width="1.5" fill="none" stroke-dasharray="8 9"></path></g><g stroke-linecap="round" transform="translate(105 650.0000000000001) rotate(0 207.5 29)"><path d="M14.5 0 M14.5 0 C134.19 -1.54, 253.8 -0.15, 400.5 0 M14.5 0 C123.11 -2, 232.76 -1.54, 400.5 0 M400.5 0 C409.2 -1.35, 416.94 3.07, 415 14.5 M400.5 0 C408.23 1.19, 413.94 4.3, 415 14.5 M415 14.5 C414.32 23.77, 416.59 34.25, 415 43.5 M415 14.5 C415.65 21.09, 414.63 27.9, 415 43.5 M415 43.5 C413.04 53.07, 410.49 58.86, 400.5 58 M415 43.5 C416.71 53.32, 409.19 59.55, 400.5 58 M400.5 58 C302.78 56.29, 205.58 55.18, 14.5 58 M400.5 58 C313.18 55.34, 225.45 55.88, 14.5 58 M14.5 58 C3.22 56.07, -1.23 54.8, 0 43.5 M14.5 58 C3.42 56.36, 0.72 54, 0 43.5 M0 43.5 C-0.46 38.57, 1.93 32.33, 0 14.5 M0 43.5 C-0.47 38.16, -1.04 31.74, 0 14.5 M0 14.5 C0.07 5.03, 3.15 -0.34, 14.5 0 M0 14.5 C-0.55 6.24, 3.11 -0.02, 14.5 0" stroke="#a61e4d" stroke-width="1" fill="none"></path></g><g transform="translate(174.921875 655.0000000000001) rotate(0 137.578125 24)"><text x="137.578125" y="0" font-family="Cascadia, Segoe UI Emoji" font-size="20px" fill="#a61e4d" text-anchor="middle" style="white-space: pre;" direction="ltr" dominant-baseline="text-before-edge">HTTP协议</text><text x="137.578125" y="24" font-family="Cascadia, Segoe UI Emoji" font-size="20px" fill="#a61e4d" text-anchor="middle" style="white-space: pre;" direction="ltr" dominant-baseline="text-before-edge">对Web服务器请求的内容的处理</text></g><g stroke-linecap="round" transform="translate(541 663.0000000000001) rotate(0 118.5 17)"><path d="M8.5 0 M8.5 0 C54.6 1.68, 100.57 -0.26, 228.5 0 M228.5 0 C232.83 1.01, 238.34 2.99, 237 8.5 M237 8.5 C237.76 15.96, 237.08 21.1, 237 25.5 M237 25.5 C237.78 32.95, 233.02 33.08, 228.5 34 M228.5 34 C181.53 36.29, 134.13 36.43, 8.5 34 M8.5 34 C2.26 35.43, -1.68 31.69, 0 25.5 M0 25.5 C-0.67 19.28, -0.15 11.69, 0 8.5 M0 8.5 C-0.85 2.57, 1.08 -1.62, 8.5 0" stroke="#087f5b" stroke-width="1.5" fill="none" stroke-dasharray="8 9"></path></g><g transform="translate(577.78125 668.0000000000001) rotate(0 81.71875 12)"><text x="81.71875" y="0" font-family="Cascadia, Segoe UI Emoji" font-size="20px" fill="#087f5b" text-anchor="middle" style="white-space: pre;" direction="ltr" dominant-baseline="text-before-edge">是请求xx网页资源</text></g><g stroke-linecap="round" transform="translate(111 735.0000000000001) rotate(0 46.5 59.5)"><path d="M23.25 0 M23.25 0 C33.72 -0.33, 48.89 -0.5, 69.75 0 M23.25 0 C35.19 0.96, 46.55 0.58, 69.75 0 M69.75 0 C85.84 0.02, 91.13 8.84, 93 23.25 M69.75 0 C85.64 0.43, 92.99 9.23, 93 23.25 M93 23.25 C92.15 43.59, 94.29 65.37, 93 95.75 M93 23.25 C92.54 46.36, 93.16 70.82, 93 95.75 M93 95.75 C93.39 109.32, 86.13 119.13, 69.75 119 M93 95.75 C92.79 110.54, 85.98 120.71, 69.75 119 M69.75 119 C52.43 119.74, 38.95 118.99, 23.25 119 M69.75 119 C52.84 119.47, 35.4 118.22, 23.25 119 M23.25 119 C6.97 119.78, 0.1 109.69, 0 95.75 M23.25 119 C9.87 118.93, -1.79 111.51, 0 95.75 M0 95.75 C0.56 75.71, 2.16 54.08, 0 23.25 M0 95.75 C1.42 77.72, 0.46 58.47, 0 23.25 M0 23.25 C1.07 6.97, 8.98 1.73, 23.25 0 M0 23.25 C-1.6 5.54, 7.42 1.76, 23.25 0" stroke="#a61e4d" stroke-width="1" fill="none"></path></g><g transform="translate(127.5 782.5000000000001) rotate(0 30 12)"><text x="30" y="0" font-family="Cascadia, Segoe UI Emoji" font-size="20px" fill="#a61e4d" text-anchor="middle" style="white-space: pre;" direction="ltr" dominant-baseline="text-before-edge">服务器</text></g><g mask="url(#mask-Y_I5kVxMRiBCdiC4tRVEJ)" stroke-linecap="round"><g transform="translate(30 102.00000000000003) rotate(0 -0.11733518435607948 362.47195272087123)"><path d="M-0.96 -0.61 C-0.88 120.16, 0.64 603.07, 0.64 724.01 M0.73 1.68 C0.7 122.72, -0.09 605.3, 0.03 725.56" stroke="#000000" stroke-width="1" fill="none"></path></g><g transform="translate(30 102.00000000000003) rotate(0 -0.11733518435607948 362.47195272087123)"><path d="M-11.24 698.43 C-7.16 704.62, -2.28 716.52, 1.8 725.66 M-9.23 698.07 C-7.64 704.08, -4.13 711.81, -0.82 724.92" stroke="#000000" stroke-width="1" fill="none"></path></g><g transform="translate(30 102.00000000000003) rotate(0 -0.11733518435607948 362.47195272087123)"><path d="M9.28 698.44 C6.98 704.46, 5.48 716.36, 1.8 725.66 M11.29 698.08 C7.41 704.13, 5.46 711.86, -0.82 724.92" stroke="#000000" stroke-width="1" fill="none"></path></g></g><mask id="mask-Y_I5kVxMRiBCdiC4tRVEJ"><rect x="0" y="0" fill="#fff" width="130" height="926.0000000000001"></rect><rect x="10" y="452.0000000000001" fill="#000" width="40" height="24" opacity="1"></rect></mask><g transform="translate(10 452) rotate(0 19.88266481564392 12.471952720871172)"><text x="20" y="0" font-family="Cascadia, Segoe UI Emoji" font-size="20px" fill="#000000" text-anchor="middle" style="white-space: pre;" direction="ltr" dominant-baseline="text-before-edge">请求</text></g><g transform="translate(468 812.0000000000001) rotate(0 120 12)"><text x="0" y="0" font-family="Cascadia, Segoe UI Emoji" font-size="20px" fill="#000000" text-anchor="start" style="white-space: pre;" direction="ltr" dominant-baseline="text-before-edge">之后以同样的方式返回数据</text></g></svg>
