<svg version="1.1" xmlns="http://www.w3.org/2000/svg" viewBox="0 0 1086.0000000000005 703.0000000000001" width="1086.0000000000005" height="703.0000000000001">
  <!-- svg-source:excalidraw -->
  
  <defs>
    <style class="style-fonts">
      @font-face {
        font-family: "Virgil";
        src: url("https://excalidraw.com/Virgil.woff2");
      }
      @font-face {
        font-family: "Cascadia";
        src: url("https://excalidraw.com/Cascadia.woff2");
      }
    </style>
  </defs>
  <rect x="0" y="0" width="1086.0000000000005" height="703.0000000000001" fill="#ffffff"></rect><g transform="translate(40.8359375 39.39999999999998) rotate(0 135.28125 21.599999999999994)"><text x="0" y="0" font-family="Cascadia, Segoe UI Emoji" font-size="36px" fill="#a61e4d" text-anchor="start" style="white-space: pre;" direction="ltr" dominant-baseline="text-before-edge">Redux 使用流程</text></g><g stroke-linecap="round" transform="translate(40.8359375 135.19999999999993) rotate(0 331 41)"><path d="M20.5 0 M20.5 0 C246.98 -1.4, 472.5 -2.25, 641.5 0 M20.5 0 C149.31 -0.74, 278.56 -1.04, 641.5 0 M641.5 0 C655.45 0.92, 662.74 6.18, 662 20.5 M641.5 0 C656.96 -1.12, 663.27 6.48, 662 20.5 M662 20.5 C661.46 36.41, 663.17 51.92, 662 61.5 M662 20.5 C661.77 31.67, 661.22 43.4, 662 61.5 M662 61.5 C660.06 77.07, 653.63 83.09, 641.5 82 M662 61.5 C662.74 76.19, 656.66 83.63, 641.5 82 M641.5 82 C510.49 80.43, 380.93 80.64, 20.5 82 M641.5 82 C498.68 84.49, 355.74 84.45, 20.5 82 M20.5 82 C7.88 82.31, 0.97 74.35, 0 61.5 M20.5 82 C5.71 80.47, 0.13 74.44, 0 61.5 M0 61.5 C-1.19 50.09, 1.8 35.82, 0 20.5 M0 61.5 C0.4 48.07, -0.48 32.1, 0 20.5 M0 20.5 C-0.31 6.09, 5.01 -1.52, 20.5 0 M0 20.5 C-1.47 7.18, 7.19 2.22, 20.5 0" stroke="#000000" stroke-width="1" fill="none"></path></g><g transform="translate(45.8359375 140.19999999999993) rotate(0 325.78125 36)"><text x="0" y="0" font-family="Cascadia, Segoe UI Emoji" font-size="20px" fill="#000000" text-anchor="start" style="white-space: pre;" direction="ltr" dominant-baseline="text-before-edge">1. 使用 configureStore 来创建一个 Redux Store</text><text x="0" y="24" font-family="Cascadia, Segoe UI Emoji" font-size="20px" fill="#000000" text-anchor="start" style="white-space: pre;" direction="ltr" dominant-baseline="text-before-edge">    · configureStore 接收一个 reducer 方法作为其一个命名参数</text><text x="0" y="48" font-family="Cascadia, Segoe UI Emoji" font-size="20px" fill="#000000" text-anchor="start" style="white-space: pre;" direction="ltr" dominant-baseline="text-before-edge">    · configureStore 默认设置 store</text></g><g stroke-linecap="round" transform="translate(40.8359375 269.79999999999995) rotate(0 341.5 41)"><path d="M20.5 0 M20.5 0 C256.34 0.61, 493.95 0.6, 662.5 0 M20.5 0 C244.03 0.9, 467.59 0.59, 662.5 0 M662.5 0 C677.72 -0.98, 684.1 6.53, 683 20.5 M662.5 0 C677.56 1.96, 683.1 5.81, 683 20.5 M683 20.5 C682.87 33.81, 684.86 49.78, 683 61.5 M683 20.5 C681.82 31.66, 682.02 41.45, 683 61.5 M683 61.5 C683.64 76.06, 677.46 83.42, 662.5 82 M683 61.5 C680.94 74.89, 675.18 80.95, 662.5 82 M662.5 82 C510.48 80.93, 360.25 81.22, 20.5 82 M662.5 82 C409.6 84.17, 156.47 83.94, 20.5 82 M20.5 82 C5.86 80.67, 0.11 74.54, 0 61.5 M20.5 82 C6.66 81.11, 1.66 73.61, 0 61.5 M0 61.5 C0.59 49.85, -1.29 36.09, 0 20.5 M0 61.5 C-0.11 45.67, -0.87 29.83, 0 20.5 M0 20.5 C-1.27 7.14, 7.15 1.93, 20.5 0 M0 20.5 C-2.02 4.89, 8.06 -0.9, 20.5 0" stroke="#000000" stroke-width="1" fill="none"></path></g><g transform="translate(45.8359375 274.79999999999995) rotate(0 336.09375 36)"><text x="0" y="0" font-family="Cascadia, Segoe UI Emoji" font-size="20px" fill="#000000" text-anchor="start" style="white-space: pre;" direction="ltr" dominant-baseline="text-before-edge">2. 将 Redux Store 提供给 React 组件</text><text x="0" y="24" font-family="Cascadia, Segoe UI Emoji" font-size="20px" fill="#000000" text-anchor="start" style="white-space: pre;" direction="ltr" dominant-baseline="text-before-edge">    · 将 React Redux 的 &lt;Provider /&gt; 组件包裹在 &lt;App /&gt; 外面</text><text x="0" y="48" font-family="Cascadia, Segoe UI Emoji" font-size="20px" fill="#000000" text-anchor="start" style="white-space: pre;" direction="ltr" dominant-baseline="text-before-edge">    · 通过 &lt;Provider store={store} /&gt; 传递 Redux Store</text></g><g stroke-linecap="round" transform="translate(40.8359375 404.4) rotate(0 501.5 53)"><path d="M26.5 0 M26.5 0 C374.08 2.4, 722.02 1.93, 976.5 0 M26.5 0 C284 0.66, 542.52 0.47, 976.5 0 M976.5 0 C994.67 0.61, 1004 7.6, 1003 26.5 M976.5 0 C993.92 0.86, 1001.62 7.23, 1003 26.5 M1003 26.5 C1001.77 46.28, 1000.76 65.3, 1003 79.5 M1003 26.5 C1002.69 42.23, 1003.35 58.62, 1003 79.5 M1003 79.5 C1001.21 95.43, 992.86 105.8, 976.5 106 M1003 79.5 C1005.02 97.49, 994.6 105.33, 976.5 106 M976.5 106 C743 109.26, 510.66 110.43, 26.5 106 M976.5 106 C748.7 107.65, 521.72 107.4, 26.5 106 M26.5 106 C7.11 107.9, -1.05 95.17, 0 79.5 M26.5 106 C10.73 106.66, 0.38 98.37, 0 79.5 M0 79.5 C1.45 58.07, 0.7 35.73, 0 26.5 M0 79.5 C1.23 67.67, -0.29 58, 0 26.5 M0 26.5 C-0.32 8.58, 7.8 0.58, 26.5 0 M0 26.5 C-0.51 10.15, 6.79 0.84, 26.5 0" stroke="#000000" stroke-width="1" fill="none"></path></g><g transform="translate(45.8359375 409.4) rotate(0 496.015625 48)"><text x="0" y="0" font-family="Cascadia, Segoe UI Emoji" font-size="20px" fill="#000000" text-anchor="start" style="white-space: pre;" direction="ltr" dominant-baseline="text-before-edge">3. 使用 createSlice 创建一个 Redux ‘Slice’ Reducer</text><text x="0" y="24" font-family="Cascadia, Segoe UI Emoji" font-size="20px" fill="#000000" text-anchor="start" style="white-space: pre;" direction="ltr" dominant-baseline="text-before-edge">    · 创建 createSlice ,并指定参数 name(string)，initial state, named reducer functions</text><text x="0" y="48" font-family="Cascadia, Segoe UI Emoji" font-size="20px" fill="#000000" text-anchor="start" style="white-space: pre;" direction="ltr" dominant-baseline="text-before-edge">    · reducer 方法可以使用内部的 Immer 来更新状态</text><text x="0" y="72" font-family="Cascadia, Segoe UI Emoji" font-size="20px" fill="#000000" text-anchor="start" style="white-space: pre;" direction="ltr" dominant-baseline="text-before-edge">    · 导出这个 slice reducer 以及 action creators</text></g><g stroke-linecap="round" transform="translate(40.8359375 563) rotate(0 430 41.00000000000006)"><path d="M20.5 0 M20.5 0 C213.8 0.58, 407.23 0.92, 839.5 0 M20.5 0 C321.44 -1.64, 622.79 -1.78, 839.5 0 M839.5 0 C852.68 1.07, 859.97 8.61, 860 20.5 M839.5 0 C852.5 -2.19, 859.45 4.67, 860 20.5 M860 20.5 C861.58 34.7, 859 50.06, 860 61.5 M860 20.5 C859.36 29.99, 861.04 38.65, 860 61.5 M860 61.5 C861.5 77.09, 853.69 81.31, 839.5 82 M860 61.5 C859.27 73.6, 854.27 83.25, 839.5 82 M839.5 82 C602.1 80.46, 365.14 79.8, 20.5 82 M839.5 82 C622.25 83.45, 404.28 83.63, 20.5 82 M20.5 82 C4.97 82.12, -1.02 74.23, 0 61.5 M20.5 82 C5.39 81.39, 1.96 76.86, 0 61.5 M0 61.5 C-1.5 47.72, 0.2 37.88, 0 20.5 M0 61.5 C-0.08 51.85, -0.18 43, 0 20.5 M0 20.5 C1.5 7.03, 5.85 1.81, 20.5 0 M0 20.5 C-2.11 4.79, 7.65 -1.84, 20.5 0" stroke="#000000" stroke-width="1" fill="none"></path></g><g transform="translate(45.8359375 568) rotate(0 424.6875 36.00000000000006)"><text x="0" y="0" font-family="Cascadia, Segoe UI Emoji" font-size="20px" fill="#000000" text-anchor="start" style="white-space: pre;" direction="ltr" dominant-baseline="text-before-edge">4. 在 React 组件中使用 React Redux 的 useSelector/useDispatch 这两个 hook</text><text x="0" y="24" font-family="Cascadia, Segoe UI Emoji" font-size="20px" fill="#000000" text-anchor="start" style="white-space: pre;" direction="ltr" dominant-baseline="text-before-edge">    · 使用 useSelector hook 从数据中读取状态</text><text x="0" y="48" font-family="Cascadia, Segoe UI Emoji" font-size="20px" fill="#000000" text-anchor="start" style="white-space: pre;" direction="ltr" dominant-baseline="text-before-edge">    · 使用 useDispatch hook 获取 dispatch 方法，然后 dispatch 所需的 actions</text></g><g stroke-linecap="round" transform="translate(10 10) rotate(0 533.0000000000002 341.50000000000006)"><path d="M32 0 M32 0 C282.47 3.96, 533.73 3.98, 1034 0 M32 0 C326.66 -3.2, 621.97 -3.63, 1034 0 M1034 0 C1056.17 0.05, 1064.54 12.29, 1066 32 M1034 0 C1055.91 -0.69, 1064.5 10.22, 1066 32 M1066 32 C1065.8 170.06, 1066.33 307.04, 1066 651 M1066 32 C1067.23 277.97, 1067.55 523.82, 1066 651 M1066 651 C1066.26 673.65, 1055.36 681.61, 1034 683 M1066 651 C1065.04 671.17, 1053.32 683.43, 1034 683 M1034 683 C753.16 684.46, 472.22 684.48, 32 683 M1034 683 C733.2 684.69, 432.84 684.63, 32 683 M32 683 C9.19 683.33, -1.8 672.9, 0 651 M32 683 C10.36 683.95, 0.52 673.04, 0 651 M0 651 C2.09 472.9, 2.21 293.32, 0 32 M0 651 C0.24 483.96, 0.56 317.12, 0 32 M0 32 C-1.93 10.25, 10.14 -0.16, 32 0 M0 32 C2.26 10.39, 10.36 -1.97, 32 0" stroke="#a61e4d" stroke-width="1" fill="none"></path></g><g stroke-linecap="round"><g transform="translate(349 220) rotate(0 0.8366736277562268 20.806280370801687)"><path d="M-0.5 -0.61 C-0.51 6.57, -0.26 34.93, -0.05 42.22 M1.43 1.69 C1.78 8.55, 2.37 33.59, 2.11 40.22" stroke="#000000" stroke-width="1" fill="none"></path></g><g transform="translate(349 220) rotate(0 0.8366736277562268 20.806280370801687)"><path d="M-6.02 18.71 C-2.63 26.05, 1.08 32.79, 3.04 41.92 M-4.53 20.93 C-2.6 27.38, 0.73 34.74, 1.37 40.38" stroke="#000000" stroke-width="1" fill="none"></path></g><g transform="translate(349 220) rotate(0 0.8366736277562268 20.806280370801687)"><path d="M8.35 18.75 C7.41 26.02, 6.79 32.74, 3.04 41.92 M9.84 20.98 C6.31 27.41, 4.19 34.76, 1.37 40.38" stroke="#000000" stroke-width="1" fill="none"></path></g></g><mask></mask><g stroke-linecap="round"><g transform="translate(348 352) rotate(0 1.6298889795596097 23.470327821266892)"><path d="M0.37 -0.14 C0.62 7.85, 1.55 40.06, 1.98 48.2 M-0.9 -1.26 C-0.33 6.32, 3.64 38.19, 4.15 46.18" stroke="#000000" stroke-width="1" fill="none"></path></g><g transform="translate(348 352) rotate(0 1.6298889795596097 23.470327821266892)"><path d="M-6.47 22.79 C-2.31 31.82, 2.02 39.54, 2.71 45.57 M-6.59 24.93 C-3.49 29.73, -0.55 36.61, 4.08 47.16" stroke="#000000" stroke-width="1" fill="none"></path></g><g transform="translate(348 352) rotate(0 1.6298889795596097 23.470327821266892)"><path d="M9.9 21.19 C8.47 30.81, 7.21 39.08, 2.71 45.57 M9.78 23.33 C8.22 28.52, 6.5 35.86, 4.08 47.16" stroke="#000000" stroke-width="1" fill="none"></path></g></g><mask></mask><g stroke-linecap="round"><g transform="translate(354 514.0000000000001) rotate(0 0.5645089519350677 22.26238666006367)"><path d="M-0.42 0.53 C-0.28 7.91, 0.57 36.48, 0.77 43.84 M1.55 -0.24 C1.53 7.28, -0.02 37.09, -0.3 44.77" stroke="#000000" stroke-width="1" fill="none"></path></g><g transform="translate(354 514.0000000000001) rotate(0 0.5645089519350677 22.26238666006367)"><path d="M-6.17 22.91 C-7.1 29.16, -3.72 35.67, 1.67 44.53 M-7.61 22.96 C-6.16 28.59, -3.6 36.25, 0.06 43.82" stroke="#000000" stroke-width="1" fill="none"></path></g><g transform="translate(354 514.0000000000001) rotate(0 0.5645089519350677 22.26238666006367)"><path d="M9.21 23.6 C3.81 29.59, 2.7 35.91, 1.67 44.53 M7.77 23.65 C4.82 29.19, 2.97 36.65, 0.06 43.82" stroke="#000000" stroke-width="1" fill="none"></path></g></g><mask></mask></svg>
