<svg version="1.1" xmlns="http://www.w3.org/2000/svg" viewBox="0 0 626 110" width="626" height="110">
  <!-- svg-source:excalidraw -->
  
  <defs>
    <style class="style-fonts">
      @font-face {
        font-family: "Virgil";
        src: url("https://excalidraw.com/Virgil.woff2");
      }
      @font-face {
        font-family: "Cascadia";
        src: url("https://excalidraw.com/Cascadia.woff2");
      }
    </style>
  </defs>
  <rect x="0" y="0" width="626" height="110" fill="#ffffff"></rect><g stroke-linecap="round" transform="translate(10 57) rotate(0 62 21.5)"><path d="M10.75 0 M10.75 0 C38.55 -1.48, 69.2 0.97, 113.25 0 M10.75 0 C31.42 -1.3, 52.84 -0.68, 113.25 0 M113.25 0 C119.59 1.42, 122.85 4, 124 10.75 M113.25 0 C120.87 2.08, 125.88 3.84, 124 10.75 M124 10.75 C125.73 17.37, 124.62 28.68, 124 32.25 M124 10.75 C123.85 18.37, 124.74 26.19, 124 32.25 M124 32.25 C124.5 38.43, 118.98 44.64, 113.25 43 M124 32.25 C123.74 40.7, 122.7 43.7, 113.25 43 M113.25 43 C78.85 41.89, 47.71 44.39, 10.75 43 M113.25 43 C78.13 43.91, 40.94 42.62, 10.75 43 M10.75 43 C1.92 43.41, 0.55 38.32, 0 32.25 M10.75 43 C4.02 42.65, -1.98 41.62, 0 32.25 M0 32.25 C-0.51 27.45, 0.83 19.36, 0 10.75 M0 32.25 C-0.65 25.95, -0.75 18.55, 0 10.75 M0 10.75 C1.51 2.62, 2.44 0.46, 10.75 0 M0 10.75 C-1.92 5.64, 5.46 1.68, 10.75 0" stroke="#364fc7" stroke-width="1" fill="none"></path></g><g transform="translate(42 66) rotate(0 30 12.5)"><text x="30" y="0" font-family="Virgil, Segoe UI Emoji" font-size="20px" fill="#364fc7" text-anchor="middle" style="white-space: pre;" direction="ltr" dominant-baseline="text-before-edge">客户端</text></g><g stroke-linecap="round" transform="translate(247 57) rotate(0 62 21.5)"><path d="M10.75 0 M10.75 0 C43.57 -0.75, 77.72 2.24, 113.25 0 M10.75 0 C35.43 -1.26, 59.19 -0.1, 113.25 0 M113.25 0 C120.45 -1.14, 124.7 2.72, 124 10.75 M113.25 0 C118.27 -0.81, 125.28 2.5, 124 10.75 M124 10.75 C125.1 18.9, 122.86 25.44, 124 32.25 M124 10.75 C124.81 17.45, 123.43 22.61, 124 32.25 M124 32.25 C122.2 38.94, 121.26 44.39, 113.25 43 M124 32.25 C122.12 38.77, 121.77 41.09, 113.25 43 M113.25 43 C73.23 43.88, 31.89 43.68, 10.75 43 M113.25 43 C75.7 43.97, 40.09 43, 10.75 43 M10.75 43 C5.43 44.8, -1.32 38.01, 0 32.25 M10.75 43 C3.06 41.89, -1.03 39.5, 0 32.25 M0 32.25 C1.92 26.31, 1.91 24.05, 0 10.75 M0 32.25 C0.54 23.75, -0.65 16.37, 0 10.75 M0 10.75 C1.76 1.91, 2.42 -0.39, 10.75 0 M0 10.75 C1.17 3.89, 5.71 1.06, 10.75 0" stroke="#000000" stroke-width="1" fill="none"></path></g><g transform="translate(289 66) rotate(0 20 12.5)"><text x="20" y="0" font-family="Virgil, Segoe UI Emoji" font-size="20px" fill="#000000" text-anchor="middle" style="white-space: pre;" direction="ltr" dominant-baseline="text-before-edge">隧道</text></g><g stroke-linecap="round" transform="translate(492 57) rotate(0 62 21.5)"><path d="M10.75 0 M10.75 0 C36.1 0.25, 58.08 -0.56, 113.25 0 M10.75 0 C35.82 0.33, 62.49 -0.17, 113.25 0 M113.25 0 C120.78 1.08, 123.4 3.8, 124 10.75 M113.25 0 C118.99 -1.95, 124.66 5.2, 124 10.75 M124 10.75 C122.87 15.41, 123.92 22.68, 124 32.25 M124 10.75 C124.8 15.87, 124.33 20.11, 124 32.25 M124 32.25 C123.2 41.08, 122.28 44.2, 113.25 43 M124 32.25 C122.24 37.77, 118.36 44.38, 113.25 43 M113.25 43 C81.28 44.15, 50.44 44.1, 10.75 43 M113.25 43 C91.04 42.23, 69.79 42.08, 10.75 43 M10.75 43 C4.31 41.88, -0.36 41.03, 0 32.25 M10.75 43 C4.31 44.55, -0.78 41.15, 0 32.25 M0 32.25 C-0.39 25.69, 1.76 20.02, 0 10.75 M0 32.25 C0.22 25.76, -1.07 19.65, 0 10.75 M0 10.75 C-0.81 4.29, 3.89 1.04, 10.75 0 M0 10.75 C-0.83 2.09, 5.35 -0.29, 10.75 0" stroke="#a61e4d" stroke-width="1" fill="none"></path></g><g transform="translate(514 66) rotate(0 40 12.5)"><text x="40" y="0" font-family="Virgil, Segoe UI Emoji" font-size="20px" fill="#a61e4d" text-anchor="middle" style="white-space: pre;" direction="ltr" dominant-baseline="text-before-edge">源服务器</text></g><g stroke-linecap="round"><g transform="translate(381 64) rotate(0 52.52035017871765 -0.38708690898027953)"><path d="M0.47 0.98 C18.24 0.77, 88.1 0.29, 105.78 -0.1 M-0.74 0.45 C16.93 0.42, 86.91 -1.64, 104.72 -1.76" stroke="#a61e4d" stroke-width="1" fill="none"></path></g><g transform="translate(381 64) rotate(0 52.52035017871765 -0.38708690898027953)"><path d="M78.37 8.68 C84.49 7.48, 88.77 2.64, 105.79 0.01 M77.24 9.17 C83.77 7.22, 89.35 5.39, 104.41 -0.95" stroke="#a61e4d" stroke-width="1" fill="none"></path></g><g transform="translate(381 64) rotate(0 52.52035017871765 -0.38708690898027953)"><path d="M77.98 -11.84 C84.39 -8.37, 88.76 -8.54, 105.79 0.01 M76.85 -11.34 C83.35 -8.86, 89.01 -6.26, 104.41 -0.95" stroke="#a61e4d" stroke-width="1" fill="none"></path></g></g><mask></mask><g stroke-linecap="round"><g transform="translate(484 95) rotate(0 -52.63844591429921 -0.2914364046393416)"><path d="M1.12 -1.01 C-16.55 -1.48, -88.01 -1.77, -105.98 -1.65 M0.24 1.07 C-17.5 1.27, -88.47 0.1, -106.39 -0.46" stroke="#a61e4d" stroke-width="1" fill="none"></path></g><g transform="translate(484 95) rotate(0 -52.63844591429921 -0.2914364046393416)"><path d="M-79.66 -8.39 C-87.56 -6.4, -93.86 -3.25, -107.55 -2.44 M-77.28 -9.46 C-86.08 -7.54, -95.28 -4.59, -105.54 0.54" stroke="#a61e4d" stroke-width="1" fill="none"></path></g><g transform="translate(484 95) rotate(0 -52.63844591429921 -0.2914364046393416)"><path d="M-80.12 12.13 C-88.07 7.91, -94.23 4.86, -107.55 -2.44 M-77.74 11.06 C-86.46 6.74, -95.53 3.45, -105.54 0.54" stroke="#a61e4d" stroke-width="1" fill="none"></path></g></g><mask></mask><g stroke-linecap="round"><g transform="translate(140 68) rotate(0 50.15124799369835 -0.38965084897870383)"><path d="M1.05 -1 C17.48 -1.18, 81.84 -1.81, 97.99 -1.86 M0.14 1.09 C16.99 1.11, 83.48 -0.57, 100.16 -0.78" stroke="#364fc7" stroke-width="1" fill="none"></path></g><g transform="translate(140 68) rotate(0 50.15124799369835 -0.38965084897870383)"><path d="M70.51 8.33 C77.78 5.27, 85.67 3.09, 100.88 -1.47 M72.19 9.84 C81.71 6.35, 92.92 3.64, 101.14 -1.24" stroke="#364fc7" stroke-width="1" fill="none"></path></g><g transform="translate(140 68) rotate(0 50.15124799369835 -0.38965084897870383)"><path d="M70.11 -12.19 C77.35 -10.14, 85.33 -7.21, 100.88 -1.47 M71.79 -10.67 C81.47 -6.92, 92.81 -2.39, 101.14 -1.24" stroke="#364fc7" stroke-width="1" fill="none"></path></g></g><mask></mask><g stroke-linecap="round"><g transform="translate(240 93) rotate(0 -51.47441983893515 0.8678416650090526)"><path d="M-0.05 0.58 C-17.05 0.72, -85.75 0.6, -102.89 0.58 M-1.54 -0.16 C-18.09 0.17, -84.16 1.62, -100.65 1.9" stroke="#364fc7" stroke-width="1" fill="none"></path></g><g transform="translate(240 93) rotate(0 -51.47441983893515 0.8678416650090526)"><path d="M-71.7 -10.41 C-79.69 -8.02, -86.18 -5.4, -101.1 0.87 M-73.15 -8.85 C-77.82 -7.19, -83.56 -4.35, -100.85 1.43" stroke="#364fc7" stroke-width="1" fill="none"></path></g><g transform="translate(240 93) rotate(0 -51.47441983893515 0.8678416650090526)"><path d="M-71.3 10.11 C-79.33 7.88, -85.92 5.88, -101.1 0.87 M-72.74 11.67 C-77.37 9.15, -83.19 7.81, -100.85 1.43" stroke="#364fc7" stroke-width="1" fill="none"></path></g></g><mask></mask><g transform="translate(224 10) rotate(0 90 11.5)"><text x="0" y="0" font-family="Helvetica, Segoe UI Emoji" font-size="20px" fill="#000000" text-anchor="start" style="white-space: pre;" direction="ltr" dominant-baseline="text-before-edge">建立安全的通信线路</text></g></svg>