<svg version="1.1" xmlns="http://www.w3.org/2000/svg" viewBox="0 0 980.2167968750001 243.7062935344875" width="980.2167968750001" height="243.7062935344875">
  <!-- svg-source:excalidraw -->
  
  <defs>
    <style class="style-fonts">
      @font-face {
        font-family: "Virgil";
        src: url("https://excalidraw.com/Virgil.woff2");
      }
      @font-face {
        font-family: "Cascadia";
        src: url("https://excalidraw.com/Cascadia.woff2");
      }
    </style>
  </defs>
  <rect x="0" y="0" width="980.2167968750001" height="243.7062935344875" fill="#ffffff"></rect><g stroke-linecap="round" transform="translate(10 10.706293534487486) rotate(0 179 37)"><path d="M1.2 -0.69 C94.04 0.81, 186.37 0.28, 358.25 -0.92 M0.14 -0.16 C77.34 -1.66, 155.78 -0.99, 358.58 -0.3 M356.78 -0.13 C357.98 26.58, 359.33 56.29, 357.52 74.61 M357.03 -0.76 C359.49 25.04, 358.41 49.53, 358.46 73.44 M357.67 73.54 C230.45 74.4, 102.17 74.36, 1.27 73.24 M357.53 73.81 C266.12 74.37, 175.14 74.59, 0.53 74.44 M-0.18 75.59 C-0.54 51.3, 1.18 30.01, 1.66 -1.6 M-0.69 74.12 C0.16 49.1, -0.29 23.87, -0.58 -0.57" stroke="#000000" stroke-width="1" fill="none"></path></g><g transform="translate(149 36.206293534487486) rotate(0 40 11.5)"><text x="40" y="0" font-family="Helvetica, Segoe UI Emoji" font-size="20px" fill="#000000" text-anchor="middle" style="white-space: pre;" direction="ltr" dominant-baseline="text-before-edge">报文首部</text></g><g stroke-linecap="round" transform="translate(10 86.70629353448749) rotate(0 179 26)"><path d="M-0.06 -0.9 C87.99 -1.32, 172.35 -1.68, 358.46 0.58 M0.08 -0.29 C102.38 -0.86, 205.25 -0.37, 357.59 0.05 M356.22 -0.64 C356.33 15.24, 356.36 33.65, 358.95 52.02 M357.3 0.4 C358.32 18.07, 358.49 36.18, 358.4 52.67 M359.17 52.99 C239.08 51.63, 121.85 51.79, -0.06 52.75 M358.01 51.94 C223.66 51.43, 89.94 51.96, 0.26 51.6 M1.71 50.84 C-1.09 36.53, 0.44 22.96, -0.31 -0.3 M-0.69 51.78 C-0.97 31.6, 0.54 11.93, -0.14 -0.42" stroke="#000000" stroke-width="1" fill="none"></path></g><g transform="translate(114.2685546875 101.20629353448749) rotate(0 74.7314453125 11.5)"><text x="74.7314453125" y="0" font-family="Helvetica, Segoe UI Emoji" font-size="20px" fill="#000000" text-anchor="middle" style="white-space: pre;" direction="ltr" dominant-baseline="text-before-edge">空行 （CR+LF）</text></g><g stroke-linecap="round" transform="translate(10 139.7062935344875) rotate(0 179 47)"><path d="M0.92 -1.17 C126.75 -0.23, 254.59 0.65, 359.27 1.1 M-0.2 -0.5 C123.01 -0.25, 244.23 0.29, 358.11 0.44 M358.62 -1.27 C358.8 20.05, 357.83 42.62, 356.29 95.7 M357.99 -0.23 C357.59 24.43, 357.96 48.46, 357.7 94.8 M358.09 94.37 C230.59 93.73, 105.5 95.72, 0.54 92.81 M358.62 93.44 C243.05 93.73, 128.15 93.51, -0.39 93.69 M0.15 93.89 C-0.46 65.1, 0.34 33.64, -1.24 -1.54 M0.24 94.2 C0.1 74.53, 0 53.8, 0.92 0.08" stroke="#000000" stroke-width="1" fill="none"></path></g><g transform="translate(149 175.2062935344875) rotate(0 40 11.5)"><text x="40" y="0" font-family="Helvetica, Segoe UI Emoji" font-size="20px" fill="#000000" text-anchor="middle" style="white-space: pre;" direction="ltr" dominant-baseline="text-before-edge">报文主体</text></g><g stroke-linecap="round" transform="translate(446.0000000000001 10.706293534487486) rotate(0 150.5 19.5)"><path d="M0.15 0.54 C105.72 1.27, 209.32 2.87, 301.4 -0.37 M-0.18 -0.6 C83.65 -1.15, 167.78 -0.76, 301.44 0.69 M302.11 0.09 C298.9 14.6, 300.99 32.3, 302.01 39.67 M300.95 0.7 C300.35 13.88, 300.01 28.32, 301.93 39.12 M299.92 38.61 C189.85 38.3, 78.21 38.78, 0.15 38.69 M301.36 39.32 C198.06 37.82, 94.45 38.1, 0.66 38.68 M-0.89 37.83 C-0.41 29.72, 0.81 18.32, -1.2 0.33 M0.95 38.7 C-0.84 27.32, -0.61 16.1, 0.64 -0.53" stroke="#000000" stroke-width="1" fill="none"></path></g><g transform="translate(566.5000000000001 18.706293534487486) rotate(0 30 11.5)"><text x="30" y="0" font-family="Helvetica, Segoe UI Emoji" font-size="20px" fill="#000000" text-anchor="middle" style="white-space: pre;" direction="ltr" dominant-baseline="text-before-edge">状态行</text></g><g stroke-linecap="round" transform="translate(446.0000000000001 51.706293534487486) rotate(0 150.5 19.5)"><path d="M-0.94 0.34 C117.13 -1.92, 236.46 -2.73, 300.59 -0.73 M0.34 -0.51 C93.65 -0.63, 186.95 -0.6, 301.07 0.63 M302.87 0.7 C299.94 14.07, 300.78 32.34, 302.18 40.63 M301.51 0.71 C302.01 9.05, 300.43 18.22, 300.59 38.47 M300.54 39.01 C192.15 39.73, 81.96 37.97, 0.3 40.39 M301.23 39.19 C184.74 41.04, 69.31 41.53, 0.12 39.65 M1.52 39.02 C-0.77 28.04, 0.97 19.57, 0.63 0.45 M-0.63 39.22 C-0.54 27.18, 0.26 15.87, -0.78 -0.17" stroke="#000000" stroke-width="1" fill="none"></path></g><g transform="translate(536.5000000000001 59.706293534487486) rotate(0 60 11.5)"><text x="60" y="0" font-family="Helvetica, Segoe UI Emoji" font-size="20px" fill="#000000" text-anchor="middle" style="white-space: pre;" direction="ltr" dominant-baseline="text-before-edge">响应首部字段</text></g><g stroke-linecap="round" transform="translate(446.0000000000001 88.70629353448749) rotate(0 150.5 19.5)"><path d="M0.61 1.12 C84.86 -0.67, 170.26 1.37, 302.25 -0.33 M-0.34 0.24 C115.08 0.17, 229.96 0.08, 300.56 -0.7 M299.86 -1.62 C301.89 8.39, 301.93 18.72, 300.88 37.43 M300.15 -0.36 C300.7 15.15, 299.98 30.56, 300.71 38.34 M300.59 38.87 C192.22 40.31, 83.46 39.45, 0.17 38.24 M300.57 38.53 C190.63 39.95, 79.23 39.37, -0.44 39.23 M1.77 39.04 C2.04 30.92, -0.14 21.8, -0.49 -0.07 M0.77 39.57 C0.28 26.01, 0.17 14.43, -0.33 -0.3" stroke="#000000" stroke-width="1" fill="none"></path></g><g transform="translate(536.5000000000001 96.70629353448749) rotate(0 60 11.5)"><text x="60" y="0" font-family="Helvetica, Segoe UI Emoji" font-size="20px" fill="#000000" text-anchor="middle" style="white-space: pre;" direction="ltr" dominant-baseline="text-before-edge">通用首部字段</text></g><g stroke-linecap="round" transform="translate(446.0000000000001 128.7062935344875) rotate(0 150.5 19.5)"><path d="M1.24 0.68 C102.7 0.56, 205.76 -0.09, 301.29 -0.17 M0.17 -0.38 C72.72 -1.01, 145.01 -1.48, 301.5 0.06 M299.82 1.25 C301.25 13.02, 299.13 30.74, 301.66 37.65 M300.44 -0.14 C301.84 14.61, 300.34 30.51, 300.61 39.65 M299.65 37.72 C226.07 40.98, 146.89 39.73, -0.72 39.09 M301.68 39.27 C231.49 39.7, 163.23 38.72, 0.44 39.72 M-1.17 37.28 C-1.64 28.33, 0.86 15.5, 1.39 1.94 M0.88 38.3 C-0.46 26.78, 0.1 14.37, -0.02 0.65" stroke="#000000" stroke-width="1" fill="none"></path></g><g transform="translate(536.5000000000001 136.7062935344875) rotate(0 60 11.5)"><text x="60" y="0" font-family="Helvetica, Segoe UI Emoji" font-size="20px" fill="#000000" text-anchor="middle" style="white-space: pre;" direction="ltr" dominant-baseline="text-before-edge">实体首部字段</text></g><g stroke-linecap="round" transform="translate(446.0000000000001 166.7062935344875) rotate(0 150.5 19.5)"><path d="M-1.21 -0.27 C101.27 2.76, 200.76 0.86, 302.46 0.1 M-0.34 -0.47 C71.06 -2.18, 143.15 -2.68, 301.56 -0.54 M302.49 0.57 C301.98 11.05, 300.66 21.76, 301.39 39.37 M301.85 -0.93 C300.65 15.67, 300.85 30.48, 301.49 39.31 M302.1 39.36 C188 41.23, 73.04 40.4, -0.83 37.98 M300.83 39.54 C229.89 39.95, 157.76 39.48, -0.1 39.72 M-0.48 37.72 C-1.39 30.08, -1.66 16.22, 0.69 0.21 M-0.87 38.02 C-0.54 28.54, 0.91 15.73, -0.83 0.9" stroke="#000000" stroke-width="1" fill="none"></path></g><g transform="translate(576.5000000000001 174.7062935344875) rotate(0 20 11.5)"><text x="20" y="0" font-family="Helvetica, Segoe UI Emoji" font-size="20px" fill="#000000" text-anchor="middle" style="white-space: pre;" direction="ltr" dominant-baseline="text-before-edge">其他</text></g><g stroke-linecap="round"><g transform="translate(367.00000000000006 9.706293534487486) rotate(0 41.87704534456137 0.6953794748546898)"><path d="M1.31 0.42 C21.76 1.99, 44.02 0.35, 82.45 0.29" stroke="#000000" stroke-width="1.5" fill="none" stroke-dasharray="8 9"></path></g></g><mask></mask><g stroke-linecap="round"><g transform="translate(370.00000000000006 85.70629353448749) rotate(0 37.286782454699306 59.27587078884244)"><path d="M0.92 -1.37 C30.17 48.2, 61.25 96.45, 73.66 119.92" stroke="#000000" stroke-width="1.5" fill="none" stroke-dasharray="8 9"></path></g></g><mask></mask><g stroke-linecap="round"><g transform="translate(745.0000000000001 25.706293534487486) rotate(0 20.72298823669552 0.3647430837678485)"><path d="M-1.08 0.05 C13.4 1.63, 25.4 -0.88, 42.52 1.65 M0.38 -0.92 C8.91 -0.48, 17.01 -0.05, 41.11 1.52" stroke="#364fc7" stroke-width="1" fill="none"></path></g><g transform="translate(745.0000000000001 25.706293534487486) rotate(0 20.72298823669552 0.3647430837678485)"><path d="M19.87 7.49 C27.52 6.91, 32.75 2.26, 41.64 2.2 M21.33 6.51 C25.29 5.35, 28.77 4.32, 40.22 2.08" stroke="#364fc7" stroke-width="1" fill="none"></path></g><g transform="translate(745.0000000000001 25.706293534487486) rotate(0 20.72298823669552 0.3647430837678485)"><path d="M20.79 -6.85 C28.26 -2.98, 33.2 -3.17, 41.64 2.2 M22.25 -7.82 C25.92 -5.97, 29.21 -3.97, 40.22 2.08" stroke="#364fc7" stroke-width="1" fill="none"></path></g></g><mask></mask><g transform="translate(798.0000000000001 12.706293534487486) rotate(0 86.1083984375 11.5)"><text x="0" y="0" font-family="Helvetica, Segoe UI Emoji" font-size="20px" fill="#364fc7" text-anchor="start" style="white-space: pre;" direction="ltr" dominant-baseline="text-before-edge">HTTP版本、状态码</text></g><g stroke-linecap="round"><g transform="translate(747.0000000000001 66.70629353448749) rotate(0 12.397528198547661 0.44737072568386793)"><path d="M-1.49 0.13 C9.2 -0.18, 16.52 -2.04, 25.12 1.77 M0.62 -0.88 C10.42 -0.47, 20.16 -0.38, 26.28 0.04" stroke="#a61e4d" stroke-width="1" fill="none"></path></g></g><mask></mask><g stroke-linecap="round"><g transform="translate(747.0000000000001 146.7062935344875) rotate(0 12.508038845844567 -0.03143928665667772)"><path d="M0.5 0.41 C10.94 1.07, 17.5 1.64, 25.93 -1.04 M-0.91 0.12 C6.12 -0.68, 12.55 -0.16, 25.26 0.97" stroke="#a61e4d" stroke-width="1" fill="none"></path></g></g><mask></mask><g stroke-linecap="round"><g transform="translate(772.0000000000001 68.70629353448749) rotate(0 0.27214052993804216 40.75448698922992)"><path d="M1.29 -0.91 C-0.1 16.74, 0.08 31.81, 0.58 82.42 M-0.16 0.18 C-0.06 27.19, 1.21 54.88, -0.74 80.9" stroke="#a61e4d" stroke-width="1" fill="none"></path></g></g><mask></mask><g stroke-linecap="round"><g transform="translate(772.0000000000001 109.70629353448749) rotate(0 15.036557506769899 0.6559280465725124)"><path d="M-1.22 0.79 C8.73 1.87, 13.41 2.09, 31.29 2.18 M-0.35 -0.87 C7.67 0.36, 12.57 -0.06, 30.14 0.29" stroke="#a61e4d" stroke-width="1" fill="none"></path></g><g transform="translate(772.0000000000001 109.70629353448749) rotate(0 15.036557506769899 0.6559280465725124)"><path d="M14.56 6.01 C20.15 5.53, 21.63 4.42, 30.37 1.49 M15.24 4.73 C19.38 4.44, 21.12 2.89, 29.48 0.03" stroke="#a61e4d" stroke-width="1" fill="none"></path></g><g transform="translate(772.0000000000001 109.70629353448749) rotate(0 15.036557506769899 0.6559280465725124)"><path d="M14.7 -4.59 C20.22 -2.65, 21.67 -1.34, 30.37 1.49 M15.38 -5.88 C19.53 -3.85, 21.24 -3.08, 29.48 0.03" stroke="#a61e4d" stroke-width="1" fill="none"></path></g></g><mask></mask><g transform="translate(806.0000000000001 99.70629353448749) rotate(0 66.1083984375 11.5)"><text x="0" y="0" font-family="Helvetica, Segoe UI Emoji" font-size="20px" fill="#a61e4d" text-anchor="start" style="white-space: pre;" direction="ltr" dominant-baseline="text-before-edge">HTTP首部字段</text></g></svg>