<svg version="1.1" xmlns="http://www.w3.org/2000/svg" viewBox="0 0 456.66666666666674 260.77777777777965" width="456.66666666666674" height="260.77777777777965">
  <!-- svg-source:excalidraw -->
  
  <defs>
    <style class="style-fonts">
      @font-face {
        font-family: "Virgil";
        src: url("https://excalidraw.com/Virgil.woff2");
      }
      @font-face {
        font-family: "Cascadia";
        src: url("https://excalidraw.com/Cascadia.woff2");
      }
    </style>
  </defs>
  <rect x="0" y="0" width="456.66666666666674" height="260.77777777777965" fill="#ffffff"></rect><g stroke-linecap="round" transform="translate(10 10) rotate(0 97.22222222222223 24.444444444444457)"><path d="M1.58 1.2 C39.37 1.83, 82.23 2.34, 194.35 1.47 M0.15 -0.07 C57.51 -0.83, 115.9 -0.59, 194.31 -0.96 M193.28 -0.14 C196.18 12.12, 194.65 20.71, 193.64 48.98 M193.5 0.24 C194.6 13.8, 193.76 28.69, 194.02 49.64 M195.58 49.57 C131.97 49.57, 69.69 50.41, 0.25 49.07 M194.43 49.38 C149.47 48.1, 101.87 49.63, -0.38 48.1 M0.21 49.8 C1 37.82, -0.4 23.55, -1.95 1.38 M0.72 48.5 C0 36.02, 0.23 23.58, 0.54 -0.47" stroke="#000000" stroke-width="1" fill="none"></path></g><g transform="translate(41.113823784722285 22.94444444444457) rotate(0 66.1083984375 11.5)"><text x="66.1083984375" y="0" font-family="Helvetica, Segoe UI Emoji" font-size="20px" fill="#000000" text-anchor="middle" style="white-space: pre;" direction="ltr" dominant-baseline="text-before-edge">应用（HTTP）</text></g><g stroke-linecap="round" transform="translate(10 60) rotate(0 97.22222222222223 24.444444444444457)"><path d="M-0.09 0.61 C69.86 1.38, 139.84 0.68, 195.39 0.31 M0.71 0.33 C56.91 -1.13, 113.29 -0.23, 194.61 -0.58 M194.68 -0.95 C194.07 14.43, 194.62 28.83, 194.17 47.01 M193.72 0.62 C194.07 16.61, 194.73 30.94, 195.24 49.46 M195.05 48.87 C129.75 48.23, 63.29 48.97, -0.02 48.86 M193.74 49.65 C126.13 46.6, 58.05 47.97, 0.49 49 M-0.12 47.89 C-2.26 33.38, -1.22 15.83, 0.22 1.45 M0.4 48.5 C0.45 35.67, 0.29 24.28, 0.44 -0.73" stroke="#000000" stroke-width="1" fill="none"></path></g><g transform="translate(87.22222222222229 72.94444444444457) rotate(0 20 11.5)"><text x="20" y="0" font-family="Helvetica, Segoe UI Emoji" font-size="20px" fill="#000000" text-anchor="middle" style="white-space: pre;" direction="ltr" dominant-baseline="text-before-edge">TCP</text></g><g stroke-linecap="round" transform="translate(10 108.88888888888914) rotate(0 97.22222222222223 24.444444444444457)"><path d="M-0.08 0.78 C65.25 -1.12, 128.47 -1.6, 194.62 1.41 M-0.78 -0.06 C64.93 1.28, 129.46 2.74, 195.09 0.12 M194.19 0.16 C193.97 10.45, 194.73 24.91, 193.98 47.44 M194.67 -0.77 C195.03 18.28, 194.57 35.53, 194.01 49.19 M193.17 49.81 C136.27 49.03, 79.13 50.99, -1.54 47.48 M193.93 49.46 C121.73 47.46, 48.48 47.99, 0.55 48.83 M-0.9 49.6 C0.69 38.12, -0.31 24.82, -0.81 0.8 M0.37 49.78 C0.18 35.38, -1.04 22.93, -0.7 0.52" stroke="#000000" stroke-width="1" fill="none"></path></g><g transform="translate(97.77398003472229 121.83333333333371) rotate(0 9.4482421875 11.5)"><text x="9.4482421875" y="0" font-family="Helvetica, Segoe UI Emoji" font-size="20px" fill="#000000" text-anchor="middle" style="white-space: pre;" direction="ltr" dominant-baseline="text-before-edge">IP</text></g><g stroke-linecap="round" transform="translate(252.22222222222229 10) rotate(0 97.22222222222223 24.444444444444457)"><path d="M0.19 1.78 C40.79 -2.98, 81.31 -0.09, 194.91 -0.58 M-0.94 -0.56 C52.21 0.39, 105.01 -0.62, 194.73 0.51 M193.19 0.02 C195.36 11.42, 194.4 25.1, 194.9 48.54 M194.75 0.93 C194.18 14.64, 195.12 30.64, 194.21 48.23 M196.37 47.43 C118.14 50.75, 40.71 50.69, -1.31 48.81 M195.26 49.17 C119.98 47.33, 48.12 48.27, 0.54 49.62 M-0.61 49.18 C-1.48 32.85, 1.31 17.33, 1.05 -0.39 M-0.05 48.21 C-1.26 32.74, -1 15.4, 0.7 -0.83" stroke="#000000" stroke-width="1" fill="none"></path></g><g transform="translate(283.33604600694457 22.94444444444457) rotate(0 66.1083984375 11.5)"><text x="66.1083984375" y="0" font-family="Helvetica, Segoe UI Emoji" font-size="20px" fill="#000000" text-anchor="middle" style="white-space: pre;" direction="ltr" dominant-baseline="text-before-edge">应用（HTTP）</text></g><g stroke-linecap="round" transform="translate(252.22222222222229 60) rotate(0 97.22222222222223 24.444444444444457)"><path d="M1.56 -0.52 C48.7 2.04, 98.44 0.32, 196.28 -0.88 M-0.64 -0.77 C63.12 -0.07, 125.41 -0.88, 195.09 -0.81 M195.51 0.12 C196.51 11.6, 196.51 23.17, 194.29 49.82 M194.57 -0.81 C194.04 17.93, 195.27 35.84, 194.36 48.17 M192.7 47.87 C139.83 48.53, 86.93 49.6, 1.69 49.62 M193.9 49.12 C119.3 48.55, 43.61 49.25, 0.67 49.6 M-0.89 50.85 C0.12 36.63, 0.76 24.98, 1.36 -1.95 M0.83 48.02 C-0.28 38, 0.38 26.66, 0.73 0.85" stroke="#a61e4d" stroke-width="1" fill="none"></path></g><g transform="translate(330.5430772569445 72.94444444444457) rotate(0 18.9013671875 11.5)"><text x="18.9013671875" y="0" font-family="Helvetica, Segoe UI Emoji" font-size="20px" fill="#a61e4d" text-anchor="middle" style="white-space: pre;" direction="ltr" dominant-baseline="text-before-edge">SSL</text></g><g stroke-linecap="round" transform="translate(252.22222222222229 109.22222222222217) rotate(0 97.22222222222223 24.444444444444457)"><path d="M0.56 -1.65 C67.57 0.34, 138.75 -0.51, 195.9 0.86 M0.15 -0.77 C56.13 1.21, 112.51 1.11, 194.25 0.41 M193.08 -1.81 C195.52 16.96, 194.22 37.89, 192.78 48.84 M194.65 0.01 C195.27 13.98, 194.34 29.19, 194.56 49.06 M192.5 48.35 C154.62 49.74, 112.57 49.15, -0.31 48.75 M193.78 49.04 C140.66 47.79, 86.73 47.47, -0.05 48.87 M-0.34 46.92 C1.44 32.58, -1.11 15.92, -0.18 -0.38 M0.97 49.2 C-0.99 29.18, -1.11 11.37, 0.87 -0.2" stroke="#000000" stroke-width="1" fill="none"></path></g><g transform="translate(329.44444444444457 122.16666666666674) rotate(0 20 11.5)"><text x="20" y="0" font-family="Helvetica, Segoe UI Emoji" font-size="20px" fill="#000000" text-anchor="middle" style="white-space: pre;" direction="ltr" dominant-baseline="text-before-edge">TCP</text></g><g stroke-linecap="round" transform="translate(252.22222222222229 158.1111111111113) rotate(0 97.22222222222223 24.444444444444457)"><path d="M0.54 0.44 C69.74 2.36, 141.49 1.08, 192.63 -1.82 M0.55 0.23 C40.6 -1.41, 79.77 -1.26, 194.34 0.46 M196.42 0.82 C195.69 11.14, 196.12 22.48, 193.07 49.26 M193.95 0.75 C193.94 11.33, 193.77 21.36, 195.29 49.22 M194.71 48.81 C136.01 49.33, 78.43 50.78, 0.37 49.57 M193.77 48.54 C138.74 48.91, 83.39 47.78, 0.28 48.15 M0.18 49.12 C-1.41 37.42, -1.85 27.54, 1.08 1.56 M-0.44 49.81 C-0.14 29.42, 0.13 11.64, 0.67 0.13" stroke="#000000" stroke-width="1" fill="none"></path></g><g transform="translate(339.99620225694457 171.05555555555588) rotate(0 9.4482421875 11.5)"><text x="9.4482421875" y="0" font-family="Helvetica, Segoe UI Emoji" font-size="20px" fill="#000000" text-anchor="middle" style="white-space: pre;" direction="ltr" dominant-baseline="text-before-edge">IP</text></g><g transform="translate(48.88888888888903 227.77777777777965) rotate(0 26.1083984375 11.5)"><text x="0" y="0" font-family="Helvetica, Segoe UI Emoji" font-size="20px" fill="#000000" text-anchor="start" style="white-space: pre;" direction="ltr" dominant-baseline="text-before-edge">HTTP</text></g><g transform="translate(318.888888888889 226.66666666666856) rotate(0 32.7783203125 11.5)"><text x="0" y="0" font-family="Helvetica, Segoe UI Emoji" font-size="20px" fill="#000000" text-anchor="start" style="white-space: pre;" direction="ltr" dominant-baseline="text-before-edge">HTTPS</text></g></svg>